G04 Layer_Physical_Order=2*
G04 Layer_Color=16711680*
%FSAX24Y24*%
%MOIN*%
G70*
G01*
G75*
%ADD10C,0.0100*%
%ADD11C,0.0630*%
%ADD12C,0.0600*%
%ADD13C,0.0929*%
%ADD14C,0.0500*%
%ADD15R,0.0354X0.0925*%
%ADD16R,0.0680X0.1400*%
G36*
X030573Y035920D02*
X030804Y035865D01*
X031024Y035774D01*
X031226Y035650D01*
X031407Y035496D01*
X031561Y035315D01*
X031685Y035113D01*
X031776Y034893D01*
X031831Y034663D01*
X031849Y034432D01*
X031848Y034426D01*
Y028576D01*
X031800Y028560D01*
X031793Y028570D01*
X031720Y028626D01*
X031635Y028661D01*
X031593Y028667D01*
Y028320D01*
Y027974D01*
X031635Y027979D01*
X031720Y028014D01*
X031793Y028070D01*
X031800Y028080D01*
X031848Y028064D01*
Y019262D01*
X031848Y019212D01*
X031845Y019174D01*
X031846Y019162D01*
X031863Y018893D01*
X031918Y018617D01*
X032009Y018351D01*
X032133Y018099D01*
X032290Y017865D01*
X032372Y017771D01*
X032335Y017736D01*
X024955Y025117D01*
Y030604D01*
X025005Y030621D01*
X025022Y030599D01*
X025087Y030549D01*
X025162Y030518D01*
X025243Y030507D01*
X025324Y030518D01*
X025399Y030549D01*
X025464Y030599D01*
X025514Y030664D01*
X025545Y030739D01*
X025556Y030820D01*
X025545Y030901D01*
X025514Y030976D01*
X025464Y031041D01*
X025399Y031091D01*
X025330Y031120D01*
Y031349D01*
X025455D01*
Y032395D01*
X024981D01*
X024955Y032434D01*
Y032524D01*
X025297Y032866D01*
X025297Y032866D01*
X025322Y032902D01*
X025330Y032945D01*
X025330Y032945D01*
Y033239D01*
X025438Y033239D01*
X025464Y033227D01*
X025485Y033201D01*
X025490Y033177D01*
X025514Y033141D01*
X026064Y032591D01*
X026064Y032591D01*
X026100Y032566D01*
X026143Y032558D01*
X030097D01*
X030181Y032474D01*
Y032444D01*
X030180Y032395D01*
X029705D01*
Y031349D01*
X029830D01*
Y031124D01*
X029812Y031122D01*
X029737Y031091D01*
X029672Y031041D01*
X029622Y030976D01*
X029591Y030901D01*
X029580Y030820D01*
X029591Y030739D01*
X029622Y030664D01*
X029672Y030599D01*
X029737Y030549D01*
X029812Y030518D01*
X029893Y030507D01*
X029974Y030518D01*
X030050Y030549D01*
X030114Y030599D01*
X030164Y030664D01*
X030195Y030739D01*
X030248Y030757D01*
X030364Y030641D01*
X030400Y030616D01*
X030443Y030608D01*
X030443Y030608D01*
X031193D01*
X031193Y030608D01*
X031236Y030616D01*
X031272Y030641D01*
X031722Y031091D01*
X031722Y031091D01*
X031747Y031127D01*
X031755Y031170D01*
X031755Y031170D01*
Y034620D01*
X031755Y034620D01*
X031747Y034663D01*
X031722Y034699D01*
X031722Y034699D01*
X031522Y034899D01*
X031486Y034924D01*
X031443Y034932D01*
X031443Y034932D01*
X031043D01*
X031043Y034932D01*
X031000Y034924D01*
X030964Y034899D01*
X030964Y034899D01*
X030650Y034586D01*
X030626Y034550D01*
X030618Y034507D01*
X030618Y034507D01*
Y034284D01*
X030493D01*
Y033239D01*
X030967D01*
Y034284D01*
X030842D01*
Y034460D01*
X031090Y034708D01*
X031397D01*
X031531Y034574D01*
Y031217D01*
X031147Y030832D01*
X030490D01*
X030405Y030917D01*
Y032520D01*
X030405Y032520D01*
X030397Y032563D01*
X030372Y032599D01*
X030222Y032749D01*
X030186Y032774D01*
X030143Y032782D01*
X030143Y032782D01*
X026190D01*
X025783Y033189D01*
X025803Y033239D01*
X026243D01*
Y034284D01*
X026118D01*
Y034436D01*
X026149Y034449D01*
X026214Y034499D01*
X026264Y034564D01*
X026295Y034639D01*
X026306Y034720D01*
X026295Y034801D01*
X026264Y034876D01*
X026214Y034941D01*
X026149Y034991D01*
X026074Y035022D01*
X025993Y035033D01*
X025912Y035022D01*
X025837Y034991D01*
X025772Y034941D01*
X025722Y034876D01*
X025691Y034801D01*
X025638Y034783D01*
X025322Y035099D01*
X025286Y035124D01*
X025243Y035132D01*
X025243Y035132D01*
X020593D01*
X020593Y035132D01*
X020550Y035124D01*
X020514Y035099D01*
X020514Y035099D01*
X018914Y033499D01*
X018890Y033463D01*
X018881Y033420D01*
X018881Y033420D01*
Y011890D01*
X018315Y011323D01*
X018295Y011338D01*
X018167Y011391D01*
X018030Y011409D01*
X017893Y011391D01*
X017766Y011338D01*
X017656Y011254D01*
X017572Y011145D01*
X017519Y011017D01*
X017501Y010880D01*
X017519Y010743D01*
X017572Y010616D01*
X017656Y010506D01*
X017766Y010422D01*
X017893Y010369D01*
X018030Y010351D01*
X018167Y010369D01*
X018295Y010422D01*
X018404Y010506D01*
X018488Y010616D01*
X018541Y010743D01*
X018559Y010880D01*
X018541Y011017D01*
X018488Y011145D01*
X018473Y011165D01*
X019072Y011764D01*
X019072Y011764D01*
X019097Y011800D01*
X019105Y011843D01*
X019105Y011843D01*
Y033374D01*
X020640Y034908D01*
X025197D01*
X025481Y034624D01*
Y034324D01*
X025455Y034284D01*
X025431Y034284D01*
X024981D01*
Y033239D01*
X025106D01*
Y032991D01*
X024764Y032649D01*
X024740Y032613D01*
X024731Y032570D01*
X024731Y032570D01*
Y025070D01*
X024731Y025070D01*
X024740Y025027D01*
X024764Y024991D01*
X035923Y013831D01*
X035920Y013781D01*
X035884Y013754D01*
X035824Y013675D01*
X035786Y013584D01*
X035773Y013486D01*
X035786Y013388D01*
X035824Y013297D01*
X035884Y013219D01*
X035962Y013159D01*
X036054Y013121D01*
X036152Y013108D01*
X036249Y013121D01*
X036341Y013159D01*
X036419Y013219D01*
X036479Y013297D01*
X036517Y013388D01*
X036530Y013486D01*
X036517Y013584D01*
X036479Y013675D01*
X036419Y013754D01*
X036341Y013814D01*
X036249Y013852D01*
X036216Y013856D01*
X032558Y017514D01*
X032593Y017550D01*
X032687Y017468D01*
X032921Y017311D01*
X033173Y017187D01*
X033439Y017096D01*
X033715Y017041D01*
X033918Y017028D01*
X033960Y017020D01*
X038247D01*
X038248Y017019D01*
X038248Y017019D01*
X038248Y017019D01*
X038465Y017005D01*
X038712Y016956D01*
X038951Y016875D01*
X039177Y016763D01*
X039386Y016624D01*
X039575Y016457D01*
X039742Y016268D01*
X039881Y016059D01*
X039993Y015833D01*
X040074Y015594D01*
X040123Y015347D01*
X040138Y015112D01*
X040137Y015062D01*
X040140Y015041D01*
X040143Y015012D01*
Y009370D01*
X017484D01*
X017474Y009420D01*
X017527Y009442D01*
X017645Y009533D01*
X017736Y009651D01*
X017793Y009788D01*
X017806Y009885D01*
X017243D01*
Y009935D01*
D01*
Y009885D01*
X016680D01*
X016693Y009788D01*
X016750Y009651D01*
X016840Y009533D01*
X016958Y009442D01*
X017011Y009420D01*
X017001Y009370D01*
X013941D01*
X013931Y009420D01*
X013984Y009442D01*
X014102Y009533D01*
X014193Y009651D01*
X014249Y009788D01*
X014262Y009885D01*
X013699D01*
X013137D01*
X013149Y009788D01*
X013206Y009651D01*
X013297Y009533D01*
X013415Y009442D01*
X013468Y009420D01*
X013458Y009370D01*
X011992D01*
Y015013D01*
X011993Y015062D01*
X011993Y015062D01*
D01*
X011992Y015112D01*
Y015120D01*
X012007Y015347D01*
X012056Y015594D01*
X012137Y015833D01*
X012249Y016059D01*
X012388Y016268D01*
X012554Y016457D01*
X012744Y016624D01*
X012953Y016763D01*
X013179Y016875D01*
X013418Y016956D01*
X013665Y017005D01*
X013877Y017019D01*
X013882Y017018D01*
X014418D01*
X014468Y017018D01*
X014506Y017015D01*
X014518Y017016D01*
X014787Y017033D01*
X015063Y017088D01*
X015329Y017179D01*
X015581Y017303D01*
X015815Y017460D01*
X016027Y017645D01*
X016212Y017857D01*
X016369Y018091D01*
X016493Y018343D01*
X016584Y018609D01*
X016638Y018885D01*
X016652Y019084D01*
X016654Y019087D01*
X016662Y019130D01*
Y034428D01*
X016661Y034435D01*
X016679Y034664D01*
X016734Y034895D01*
X016825Y035114D01*
X016949Y035316D01*
X017103Y035496D01*
X017283Y035650D01*
X017485Y035774D01*
X017704Y035865D01*
X017935Y035920D01*
X018165Y035938D01*
X018171Y035937D01*
X030337D01*
X030343Y035938D01*
X030573Y035920D01*
D02*
G37*
%LPC*%
G36*
X028993Y035882D02*
X028993Y035882D01*
X019693D01*
X019693Y035882D01*
X019650Y035874D01*
X019614Y035849D01*
X019614Y035849D01*
X017264Y033499D01*
X017240Y033463D01*
X017231Y033420D01*
X017231Y033420D01*
Y017067D01*
X014408Y014243D01*
X014383Y014207D01*
X014375Y014164D01*
X014375Y014164D01*
Y013560D01*
X014350Y013557D01*
X014222Y013504D01*
X014113Y013420D01*
X014029Y013310D01*
X013976Y013183D01*
X013958Y013046D01*
X013976Y012909D01*
X014029Y012781D01*
X014113Y012671D01*
X014222Y012587D01*
X014350Y012535D01*
X014375Y012531D01*
Y011395D01*
X014350Y011391D01*
X014222Y011338D01*
X014113Y011254D01*
X014029Y011145D01*
X013976Y011017D01*
X013958Y010880D01*
X013976Y010743D01*
X014029Y010616D01*
X014113Y010506D01*
X014222Y010422D01*
X014350Y010369D01*
X014487Y010351D01*
X014624Y010369D01*
X014751Y010422D01*
X014861Y010506D01*
X014945Y010616D01*
X014998Y010743D01*
X015016Y010880D01*
X014998Y011017D01*
X014945Y011145D01*
X014861Y011254D01*
X014751Y011338D01*
X014624Y011391D01*
X014599Y011395D01*
Y012531D01*
X014624Y012535D01*
X014751Y012587D01*
X014861Y012671D01*
X014945Y012781D01*
X014998Y012909D01*
X015016Y013046D01*
X014998Y013183D01*
X014945Y013310D01*
X014861Y013420D01*
X014751Y013504D01*
X014624Y013557D01*
X014599Y013560D01*
Y014117D01*
X017422Y016941D01*
X017422Y016941D01*
X017447Y016977D01*
X017455Y017020D01*
Y033374D01*
X019740Y035658D01*
X028947D01*
X029830Y034774D01*
Y034284D01*
X029705D01*
Y034670D01*
X029705Y034670D01*
X029697Y034713D01*
X029672Y034749D01*
X029672Y034749D01*
X028872Y035549D01*
X028836Y035574D01*
X028793Y035582D01*
X028793Y035582D01*
X020343D01*
X020343Y035582D01*
X020300Y035574D01*
X020264Y035549D01*
X017951Y033236D01*
X017927Y033200D01*
X017918Y033157D01*
X017918Y033157D01*
Y013560D01*
X017893Y013557D01*
X017766Y013504D01*
X017656Y013420D01*
X017572Y013310D01*
X017519Y013183D01*
X017501Y013046D01*
X017519Y012909D01*
X017572Y012781D01*
X017656Y012671D01*
X017766Y012587D01*
X017893Y012535D01*
X018030Y012516D01*
X018167Y012535D01*
X018295Y012587D01*
X018404Y012671D01*
X018488Y012781D01*
X018541Y012909D01*
X018559Y013046D01*
X018541Y013183D01*
X018488Y013310D01*
X018404Y013420D01*
X018295Y013504D01*
X018167Y013557D01*
X018142Y013560D01*
Y033111D01*
X020390Y035358D01*
X028747D01*
X029481Y034624D01*
Y034423D01*
X029431Y034389D01*
X028878D01*
X028832Y034370D01*
X028813Y034324D01*
Y033170D01*
X028832Y033124D01*
X028878Y033105D01*
X029431D01*
X029433Y033106D01*
X029490Y033077D01*
X029514Y033041D01*
X029664Y032891D01*
X029700Y032866D01*
X029743Y032858D01*
X029743Y032858D01*
X030347D01*
X030618Y032587D01*
Y032395D01*
X030493D01*
Y031349D01*
X030967D01*
Y032395D01*
X030842D01*
Y032633D01*
X030842Y032633D01*
X030833Y032676D01*
X030809Y032713D01*
X030809Y032713D01*
X030472Y033049D01*
X030436Y033074D01*
X030393Y033082D01*
X030393Y033082D01*
X029790D01*
X029705Y033167D01*
Y033239D01*
X030180D01*
Y034284D01*
X030055D01*
Y034821D01*
X030055Y034821D01*
X030046Y034864D01*
X030022Y034900D01*
X030022Y034900D01*
X029072Y035849D01*
X029036Y035874D01*
X028993Y035882D01*
D02*
G37*
G36*
X030543Y035567D02*
Y035270D01*
X030840D01*
X030834Y035311D01*
X030799Y035397D01*
X030743Y035470D01*
X030670Y035526D01*
X030585Y035561D01*
X030543Y035567D01*
D02*
G37*
G36*
X030443D02*
X030402Y035561D01*
X030317Y035526D01*
X030244Y035470D01*
X030187Y035397D01*
X030152Y035311D01*
X030147Y035270D01*
X030443D01*
Y035567D01*
D02*
G37*
G36*
X030840Y035170D02*
X030543D01*
Y034874D01*
X030585Y034879D01*
X030670Y034914D01*
X030743Y034970D01*
X030799Y035044D01*
X030834Y035129D01*
X030840Y035170D01*
D02*
G37*
G36*
X030443D02*
X030147D01*
X030152Y035129D01*
X030187Y035044D01*
X030244Y034970D01*
X030317Y034914D01*
X030402Y034879D01*
X030443Y034874D01*
Y035170D01*
D02*
G37*
G36*
X017493Y034667D02*
Y034370D01*
X017790D01*
X017784Y034411D01*
X017749Y034497D01*
X017693Y034570D01*
X017620Y034626D01*
X017535Y034661D01*
X017493Y034667D01*
D02*
G37*
G36*
X017393D02*
X017352Y034661D01*
X017267Y034626D01*
X017194Y034570D01*
X017137Y034497D01*
X017102Y034411D01*
X017097Y034370D01*
X017393D01*
Y034667D01*
D02*
G37*
G36*
X017790Y034270D02*
X017493D01*
Y033974D01*
X017535Y033979D01*
X017620Y034014D01*
X017693Y034070D01*
X017749Y034144D01*
X017784Y034229D01*
X017790Y034270D01*
D02*
G37*
G36*
X017393D02*
X017097D01*
X017102Y034229D01*
X017137Y034144D01*
X017194Y034070D01*
X017267Y034014D01*
X017352Y033979D01*
X017393Y033974D01*
Y034270D01*
D02*
G37*
G36*
X020731Y034284D02*
X020256D01*
Y033874D01*
X020095D01*
X020095Y033874D01*
X020052Y033865D01*
X020016Y033841D01*
X019224Y033049D01*
X019200Y033013D01*
X019191Y032970D01*
X019191Y032970D01*
Y019577D01*
X019191Y019577D01*
X019200Y019534D01*
X019224Y019498D01*
X022961Y015761D01*
Y013850D01*
X022884Y013818D01*
X022805Y013758D01*
X022745Y013679D01*
X022708Y013588D01*
X022695Y013490D01*
X022708Y013392D01*
X022745Y013301D01*
X022805Y013223D01*
X022884Y013163D01*
X022975Y013125D01*
X023073Y013112D01*
X023171Y013125D01*
X023262Y013163D01*
X023340Y013223D01*
X023400Y013301D01*
X023438Y013392D01*
X023451Y013490D01*
X023438Y013588D01*
X023400Y013679D01*
X023340Y013758D01*
X023262Y013818D01*
X023185Y013850D01*
Y015808D01*
X023176Y015850D01*
X023152Y015887D01*
X023152Y015887D01*
X022491Y016548D01*
X022478Y016595D01*
X022478D01*
X022478Y016595D01*
Y016715D01*
X022358D01*
X022358Y016715D01*
Y016715D01*
X022311Y016728D01*
X019415Y019624D01*
Y026579D01*
X019465Y026604D01*
X019517Y026564D01*
X019602Y026529D01*
X019643Y026524D01*
Y026870D01*
Y027217D01*
X019602Y027211D01*
X019517Y027176D01*
X019465Y027136D01*
X019415Y027161D01*
Y032350D01*
X019465Y032354D01*
X019468Y032333D01*
X019503Y032249D01*
X019558Y032177D01*
X019630Y032122D01*
X019714Y032087D01*
X019805Y032075D01*
X019895Y032087D01*
X019979Y032122D01*
X020051Y032177D01*
X020106Y032249D01*
X020141Y032333D01*
X020153Y032423D01*
X020141Y032513D01*
X020106Y032597D01*
X020051Y032670D01*
X019979Y032725D01*
X019895Y032760D01*
X019805Y032772D01*
X019714Y032760D01*
X019630Y032725D01*
X019558Y032670D01*
X019503Y032597D01*
X019468Y032513D01*
X019465Y032493D01*
X019415Y032496D01*
Y032924D01*
X020141Y033650D01*
X020256D01*
Y033239D01*
X020731D01*
Y034284D01*
D02*
G37*
G36*
X028393Y035033D02*
X028312Y035022D01*
X028237Y034991D01*
X028172Y034941D01*
X028122Y034876D01*
X028091Y034801D01*
X028080Y034720D01*
X028091Y034639D01*
X028122Y034564D01*
X028172Y034499D01*
X028237Y034449D01*
X028255Y034442D01*
Y034284D01*
X028130D01*
Y033239D01*
X028605D01*
Y034284D01*
X028480D01*
Y034420D01*
X028549Y034449D01*
X028614Y034499D01*
X028664Y034564D01*
X028695Y034639D01*
X028706Y034720D01*
X028695Y034801D01*
X028664Y034876D01*
X028614Y034941D01*
X028549Y034991D01*
X028474Y035022D01*
X028393Y035033D01*
D02*
G37*
G36*
X027593D02*
X027512Y035022D01*
X027437Y034991D01*
X027372Y034941D01*
X027322Y034876D01*
X027291Y034801D01*
X027280Y034720D01*
X027291Y034639D01*
X027322Y034564D01*
X027372Y034499D01*
X027437Y034449D01*
X027468Y034436D01*
Y034284D01*
X027343D01*
Y033239D01*
X027817D01*
Y034284D01*
X027692D01*
Y034426D01*
X027750Y034449D01*
X027814Y034499D01*
X027864Y034564D01*
X027895Y034639D01*
X027906Y034720D01*
X027895Y034801D01*
X027864Y034876D01*
X027814Y034941D01*
X027750Y034991D01*
X027674Y035022D01*
X027593Y035033D01*
D02*
G37*
G36*
X026793D02*
X026712Y035022D01*
X026637Y034991D01*
X026572Y034941D01*
X026522Y034876D01*
X026491Y034801D01*
X026480Y034720D01*
X026491Y034639D01*
X026522Y034564D01*
X026572Y034499D01*
X026637Y034449D01*
X026681Y034431D01*
Y034284D01*
X026556D01*
Y033239D01*
X027030D01*
Y034284D01*
X026905D01*
Y034431D01*
X026950Y034449D01*
X027014Y034499D01*
X027064Y034564D01*
X027095Y034639D01*
X027106Y034720D01*
X027095Y034801D01*
X027064Y034876D01*
X027014Y034941D01*
X026950Y034991D01*
X026874Y035022D01*
X026793Y035033D01*
D02*
G37*
G36*
X023880Y034284D02*
X023406D01*
Y033239D01*
X023531D01*
Y033167D01*
X023164Y032799D01*
X023140Y032763D01*
X023131Y032720D01*
X023131Y032720D01*
Y032423D01*
X023093Y032395D01*
X023081Y032395D01*
X022619Y032395D01*
X022605Y032439D01*
Y033195D01*
X022619Y033239D01*
X023093D01*
Y034284D01*
X022619D01*
Y033683D01*
X022414Y033479D01*
X022390Y033442D01*
X022381Y033399D01*
X022381Y033399D01*
Y021720D01*
X022381Y021720D01*
X022390Y021677D01*
X022414Y021641D01*
X029496Y014559D01*
Y013846D01*
X029419Y013814D01*
X029341Y013754D01*
X029281Y013675D01*
X029243Y013584D01*
X029230Y013486D01*
X029243Y013388D01*
X029281Y013297D01*
X029341Y013219D01*
X029419Y013159D01*
X029510Y013121D01*
X029608Y013108D01*
X029706Y013121D01*
X029797Y013159D01*
X029876Y013219D01*
X029936Y013297D01*
X029974Y013388D01*
X029986Y013486D01*
X029974Y013584D01*
X029936Y013675D01*
X029876Y013754D01*
X029797Y013814D01*
X029720Y013846D01*
Y014605D01*
X029720Y014605D01*
X029712Y014648D01*
X029688Y014684D01*
X029688Y014684D01*
X022605Y021767D01*
Y031305D01*
X022619Y031349D01*
X022655Y031349D01*
X022744D01*
Y022708D01*
X022744Y022708D01*
X022752Y022665D01*
X022776Y022628D01*
X030587Y014818D01*
Y013846D01*
X030510Y013814D01*
X030431Y013754D01*
X030371Y013675D01*
X030333Y013584D01*
X030321Y013486D01*
X030333Y013388D01*
X030371Y013297D01*
X030431Y013219D01*
X030510Y013159D01*
X030601Y013121D01*
X030699Y013108D01*
X030797Y013121D01*
X030888Y013159D01*
X030966Y013219D01*
X031026Y013297D01*
X031064Y013388D01*
X031077Y013486D01*
X031064Y013584D01*
X031026Y013675D01*
X030966Y013754D01*
X030888Y013814D01*
X030811Y013846D01*
Y014864D01*
X030811Y014864D01*
X030802Y014907D01*
X030778Y014944D01*
X022968Y022754D01*
Y031349D01*
X023081D01*
X023093Y031349D01*
X023131Y031321D01*
Y023220D01*
X023131Y023220D01*
X023140Y023177D01*
X023164Y023141D01*
X031677Y014627D01*
Y013846D01*
X031600Y013814D01*
X031522Y013754D01*
X031462Y013675D01*
X031424Y013584D01*
X031411Y013486D01*
X031424Y013388D01*
X031462Y013297D01*
X031522Y013219D01*
X031600Y013159D01*
X031691Y013121D01*
X031789Y013108D01*
X031887Y013121D01*
X031978Y013159D01*
X032057Y013219D01*
X032117Y013297D01*
X032155Y013388D01*
X032168Y013486D01*
X032155Y013584D01*
X032117Y013675D01*
X032057Y013754D01*
X031978Y013814D01*
X031902Y013846D01*
Y014674D01*
X031902Y014674D01*
X031893Y014717D01*
X031869Y014753D01*
X023355Y023267D01*
Y032674D01*
X023722Y033041D01*
X023722Y033041D01*
X023747Y033077D01*
X023755Y033120D01*
X023755Y033120D01*
Y033239D01*
X023880D01*
Y034284D01*
D02*
G37*
G36*
X029392Y032395D02*
X028918D01*
Y031349D01*
X029043D01*
Y031114D01*
X028987Y031091D01*
X028922Y031041D01*
X028872Y030976D01*
X028841Y030901D01*
X028830Y030820D01*
X028841Y030739D01*
X028872Y030664D01*
X028922Y030599D01*
X028987Y030549D01*
X029062Y030518D01*
X029143Y030507D01*
X029224Y030518D01*
X029299Y030549D01*
X029364Y030599D01*
X029414Y030664D01*
X029445Y030739D01*
X029456Y030820D01*
X029445Y030901D01*
X029414Y030976D01*
X029364Y031041D01*
X029299Y031091D01*
X029267Y031104D01*
Y031349D01*
X029392D01*
Y032395D01*
D02*
G37*
G36*
X028605D02*
X028130D01*
Y031349D01*
X028255D01*
Y031119D01*
X028187Y031091D01*
X028122Y031041D01*
X028072Y030976D01*
X028041Y030901D01*
X028030Y030820D01*
X028041Y030739D01*
X028072Y030664D01*
X028122Y030599D01*
X028187Y030549D01*
X028262Y030518D01*
X028343Y030507D01*
X028424Y030518D01*
X028500Y030549D01*
X028564Y030599D01*
X028614Y030664D01*
X028645Y030739D01*
X028656Y030820D01*
X028645Y030901D01*
X028614Y030976D01*
X028564Y031041D01*
X028500Y031091D01*
X028480Y031099D01*
Y031349D01*
X028605D01*
Y032395D01*
D02*
G37*
G36*
X027817D02*
X027343D01*
Y031349D01*
X027468D01*
Y031104D01*
X027437Y031091D01*
X027372Y031041D01*
X027322Y030976D01*
X027291Y030901D01*
X027280Y030820D01*
X027291Y030739D01*
X027322Y030664D01*
X027372Y030599D01*
X027437Y030549D01*
X027512Y030518D01*
X027593Y030507D01*
X027674Y030518D01*
X027750Y030549D01*
X027814Y030599D01*
X027864Y030664D01*
X027895Y030739D01*
X027906Y030820D01*
X027895Y030901D01*
X027864Y030976D01*
X027814Y031041D01*
X027750Y031091D01*
X027692Y031115D01*
Y031349D01*
X027817D01*
Y032395D01*
D02*
G37*
G36*
X027030D02*
X026556D01*
Y031349D01*
X026681D01*
Y031109D01*
X026637Y031091D01*
X026572Y031041D01*
X026522Y030976D01*
X026491Y030901D01*
X026480Y030820D01*
X026491Y030739D01*
X026522Y030664D01*
X026572Y030599D01*
X026637Y030549D01*
X026712Y030518D01*
X026793Y030507D01*
X026874Y030518D01*
X026950Y030549D01*
X027014Y030599D01*
X027064Y030664D01*
X027095Y030739D01*
X027106Y030820D01*
X027095Y030901D01*
X027064Y030976D01*
X027014Y031041D01*
X026950Y031091D01*
X026905Y031109D01*
Y031349D01*
X027030D01*
Y032395D01*
D02*
G37*
G36*
X026243D02*
X025768D01*
Y031349D01*
X025893D01*
Y031114D01*
X025837Y031091D01*
X025772Y031041D01*
X025722Y030976D01*
X025691Y030901D01*
X025680Y030820D01*
X025691Y030739D01*
X025722Y030664D01*
X025772Y030599D01*
X025837Y030549D01*
X025912Y030518D01*
X025993Y030507D01*
X026074Y030518D01*
X026149Y030549D01*
X026214Y030599D01*
X026264Y030664D01*
X026295Y030739D01*
X026306Y030820D01*
X026295Y030901D01*
X026264Y030976D01*
X026214Y031041D01*
X026149Y031091D01*
X026118Y031104D01*
Y031349D01*
X026243D01*
Y032395D01*
D02*
G37*
G36*
X031493Y028667D02*
X031452Y028661D01*
X031367Y028626D01*
X031294Y028570D01*
X031237Y028497D01*
X031202Y028411D01*
X031197Y028370D01*
X031493D01*
Y028667D01*
D02*
G37*
G36*
Y028270D02*
X031197D01*
X031202Y028229D01*
X031237Y028144D01*
X031294Y028070D01*
X031367Y028014D01*
X031452Y027979D01*
X031493Y027974D01*
Y028270D01*
D02*
G37*
G36*
X019743Y027217D02*
Y026920D01*
X020040D01*
X020034Y026961D01*
X019999Y027047D01*
X019943Y027120D01*
X019870Y027176D01*
X019785Y027211D01*
X019743Y027217D01*
D02*
G37*
G36*
X020040Y026820D02*
X019743D01*
Y026524D01*
X019785Y026529D01*
X019870Y026564D01*
X019943Y026620D01*
X019999Y026694D01*
X020034Y026779D01*
X020040Y026820D01*
D02*
G37*
G36*
X031393Y022617D02*
Y022320D01*
X031690D01*
X031684Y022361D01*
X031649Y022447D01*
X031593Y022520D01*
X031520Y022576D01*
X031435Y022611D01*
X031393Y022617D01*
D02*
G37*
G36*
X031293D02*
X031252Y022611D01*
X031167Y022576D01*
X031094Y022520D01*
X031037Y022447D01*
X031002Y022361D01*
X030997Y022320D01*
X031293D01*
Y022617D01*
D02*
G37*
G36*
X031690Y022220D02*
X031393D01*
Y021924D01*
X031435Y021929D01*
X031520Y021964D01*
X031593Y022020D01*
X031649Y022094D01*
X031684Y022179D01*
X031690Y022220D01*
D02*
G37*
G36*
X031293D02*
X030997D01*
X031002Y022179D01*
X031037Y022094D01*
X031094Y022020D01*
X031167Y021964D01*
X031252Y021929D01*
X031293Y021924D01*
Y022220D01*
D02*
G37*
G36*
X022306Y034284D02*
X021831D01*
Y033239D01*
X021956D01*
Y032992D01*
X021614Y032649D01*
X021590Y032613D01*
X021581Y032570D01*
X021581Y032570D01*
Y020800D01*
X021531Y020780D01*
X021393Y020918D01*
Y031349D01*
X021518D01*
Y032395D01*
X021055D01*
X021044Y032395D01*
X021005Y032422D01*
Y032732D01*
X021360Y033087D01*
X021360Y033087D01*
X021385Y033124D01*
X021393Y033166D01*
Y033239D01*
X021518D01*
Y034284D01*
X021044D01*
Y033239D01*
X021124D01*
X021145Y033189D01*
X020814Y032858D01*
X020790Y032822D01*
X020781Y032779D01*
X020781Y032779D01*
Y020168D01*
X020781Y020168D01*
X020790Y020125D01*
X020814Y020089D01*
X025134Y015769D01*
Y013846D01*
X025057Y013814D01*
X024979Y013754D01*
X024919Y013675D01*
X024881Y013584D01*
X024868Y013486D01*
X024881Y013388D01*
X024919Y013297D01*
X024979Y013219D01*
X025057Y013159D01*
X025148Y013121D01*
X025246Y013108D01*
X025344Y013121D01*
X025435Y013159D01*
X025513Y013219D01*
X025574Y013297D01*
X025611Y013388D01*
X025624Y013486D01*
X025611Y013584D01*
X025574Y013675D01*
X025513Y013754D01*
X025435Y013814D01*
X025358Y013846D01*
Y015815D01*
X025358Y015815D01*
X025350Y015858D01*
X025325Y015895D01*
X025325Y015895D01*
X021005Y020215D01*
Y031322D01*
X021044Y031349D01*
X021055Y031349D01*
X021169D01*
Y020871D01*
X021169Y020871D01*
X021177Y020828D01*
X021202Y020792D01*
X026224Y015769D01*
Y013846D01*
X026147Y013814D01*
X026069Y013754D01*
X026009Y013675D01*
X025971Y013584D01*
X025958Y013486D01*
X025971Y013388D01*
X026009Y013297D01*
X026069Y013219D01*
X026147Y013159D01*
X026239Y013121D01*
X026337Y013108D01*
X026434Y013121D01*
X026526Y013159D01*
X026604Y013219D01*
X026664Y013297D01*
X026702Y013388D01*
X026715Y013486D01*
X026702Y013584D01*
X026664Y013675D01*
X026604Y013754D01*
X026526Y013814D01*
X026449Y013846D01*
Y015785D01*
X026499Y015806D01*
X027315Y014990D01*
Y013846D01*
X027238Y013814D01*
X027160Y013754D01*
X027100Y013675D01*
X027062Y013584D01*
X027049Y013486D01*
X027062Y013388D01*
X027100Y013297D01*
X027160Y013219D01*
X027238Y013159D01*
X027329Y013121D01*
X027427Y013108D01*
X027525Y013121D01*
X027616Y013159D01*
X027695Y013219D01*
X027755Y013297D01*
X027792Y013388D01*
X027805Y013486D01*
X027792Y013584D01*
X027755Y013675D01*
X027695Y013754D01*
X027616Y013814D01*
X027539Y013846D01*
Y015036D01*
X027539Y015036D01*
X027531Y015079D01*
X027506Y015115D01*
X021805Y020817D01*
Y031310D01*
X021831Y031349D01*
X021855Y031349D01*
X021956D01*
Y021045D01*
X021956Y021045D01*
X021965Y021002D01*
X021989Y020966D01*
X028406Y014549D01*
Y013846D01*
X028329Y013814D01*
X028250Y013754D01*
X028190Y013675D01*
X028152Y013584D01*
X028140Y013486D01*
X028152Y013388D01*
X028190Y013297D01*
X028250Y013219D01*
X028329Y013159D01*
X028420Y013121D01*
X028518Y013108D01*
X028616Y013121D01*
X028707Y013159D01*
X028785Y013219D01*
X028845Y013297D01*
X028883Y013388D01*
X028896Y013486D01*
X028883Y013584D01*
X028845Y013675D01*
X028785Y013754D01*
X028707Y013814D01*
X028630Y013846D01*
Y014596D01*
X028630Y014596D01*
X028621Y014638D01*
X028597Y014675D01*
X028597Y014675D01*
X022181Y021091D01*
Y031349D01*
X022306D01*
Y032395D01*
X021855D01*
X021831Y032395D01*
X021805Y032434D01*
Y032524D01*
X022148Y032866D01*
X022148Y032866D01*
X022172Y032902D01*
X022181Y032945D01*
Y033239D01*
X022306D01*
Y034284D01*
D02*
G37*
G36*
X020693Y016567D02*
Y016270D01*
X020990D01*
X020984Y016311D01*
X020949Y016397D01*
X020893Y016470D01*
X020820Y016526D01*
X020735Y016561D01*
X020693Y016567D01*
D02*
G37*
G36*
X020593D02*
X020552Y016561D01*
X020467Y016526D01*
X020394Y016470D01*
X020337Y016397D01*
X020302Y016311D01*
X020297Y016270D01*
X020593D01*
Y016567D01*
D02*
G37*
G36*
X020990Y016170D02*
X020693D01*
Y015874D01*
X020735Y015879D01*
X020820Y015914D01*
X020893Y015970D01*
X020949Y016044D01*
X020984Y016129D01*
X020990Y016170D01*
D02*
G37*
G36*
X020593D02*
X020297D01*
X020302Y016129D01*
X020337Y016044D01*
X020394Y015970D01*
X020467Y015914D01*
X020552Y015879D01*
X020593Y015874D01*
Y016170D01*
D02*
G37*
G36*
X037736Y014666D02*
Y014370D01*
X038032D01*
X038027Y014411D01*
X037992Y014496D01*
X037936Y014569D01*
X037862Y014625D01*
X037777Y014661D01*
X037736Y014666D01*
D02*
G37*
G36*
X037636D02*
X037595Y014661D01*
X037509Y014625D01*
X037436Y014569D01*
X037380Y014496D01*
X037345Y014411D01*
X037339Y014370D01*
X037636D01*
Y014666D01*
D02*
G37*
G36*
X015600Y014426D02*
Y014130D01*
X015896D01*
X015891Y014171D01*
X015856Y014256D01*
X015800Y014330D01*
X015726Y014386D01*
X015641Y014421D01*
X015600Y014426D01*
D02*
G37*
G36*
X015500D02*
X015459Y014421D01*
X015373Y014386D01*
X015300Y014330D01*
X015244Y014256D01*
X015209Y014171D01*
X015204Y014130D01*
X015500D01*
Y014426D01*
D02*
G37*
G36*
X038032Y014270D02*
X037736D01*
Y013973D01*
X037777Y013979D01*
X037862Y014014D01*
X037936Y014070D01*
X037992Y014143D01*
X038027Y014228D01*
X038032Y014270D01*
D02*
G37*
G36*
X037636D02*
X037339D01*
X037345Y014228D01*
X037380Y014143D01*
X037436Y014070D01*
X037509Y014014D01*
X037595Y013979D01*
X037636Y013973D01*
Y014270D01*
D02*
G37*
G36*
X017282Y015031D02*
X017145Y015013D01*
X017018Y014960D01*
X016908Y014876D01*
X016824Y014767D01*
X016771Y014639D01*
X016753Y014502D01*
X016771Y014365D01*
X016824Y014238D01*
X016908Y014128D01*
X017018Y014044D01*
X017145Y013991D01*
X017282Y013973D01*
X017419Y013991D01*
X017547Y014044D01*
X017656Y014128D01*
X017740Y014238D01*
X017793Y014365D01*
X017811Y014502D01*
X017793Y014639D01*
X017740Y014767D01*
X017656Y014876D01*
X017547Y014960D01*
X017419Y015013D01*
X017282Y015031D01*
D02*
G37*
G36*
X013739D02*
X013602Y015013D01*
X013474Y014960D01*
X013365Y014876D01*
X013281Y014767D01*
X013228Y014639D01*
X013210Y014502D01*
X013228Y014365D01*
X013281Y014238D01*
X013365Y014128D01*
X013474Y014044D01*
X013602Y013991D01*
X013739Y013973D01*
X013876Y013991D01*
X014003Y014044D01*
X014113Y014128D01*
X014197Y014238D01*
X014250Y014365D01*
X014268Y014502D01*
X014250Y014639D01*
X014197Y014767D01*
X014113Y014876D01*
X014003Y014960D01*
X013876Y015013D01*
X013739Y015031D01*
D02*
G37*
G36*
X015896Y014030D02*
X015600D01*
Y013734D01*
X015641Y013739D01*
X015726Y013774D01*
X015800Y013830D01*
X015856Y013903D01*
X015891Y013989D01*
X015896Y014030D01*
D02*
G37*
G36*
X015500D02*
X015204D01*
X015209Y013989D01*
X015244Y013903D01*
X015300Y013830D01*
X015373Y013774D01*
X015459Y013739D01*
X015500Y013734D01*
Y014030D01*
D02*
G37*
G36*
X024668Y034284D02*
X024193D01*
Y033239D01*
X024318D01*
Y032714D01*
X024064Y032460D01*
X024040Y032423D01*
X024031Y032380D01*
X024031Y032380D01*
Y024220D01*
X024031Y024220D01*
X024040Y024177D01*
X024064Y024141D01*
X033858Y014346D01*
Y013846D01*
X033781Y013814D01*
X033703Y013754D01*
X033643Y013675D01*
X033605Y013584D01*
X033592Y013486D01*
X033605Y013388D01*
X033643Y013297D01*
X033703Y013219D01*
X033781Y013159D01*
X033873Y013121D01*
X033970Y013108D01*
X034068Y013121D01*
X034160Y013159D01*
X034238Y013219D01*
X034298Y013297D01*
X034336Y013388D01*
X034349Y013486D01*
X034336Y013584D01*
X034298Y013675D01*
X034238Y013754D01*
X034160Y013814D01*
X034083Y013846D01*
Y014393D01*
X034083Y014393D01*
X034074Y014436D01*
X034050Y014472D01*
X034050Y014472D01*
X024256Y024266D01*
Y031349D01*
X024318D01*
Y025033D01*
X024318Y025033D01*
X024327Y024990D01*
X024351Y024953D01*
X034949Y014356D01*
Y013846D01*
X034872Y013814D01*
X034794Y013754D01*
X034733Y013675D01*
X034696Y013584D01*
X034683Y013486D01*
X034696Y013388D01*
X034733Y013297D01*
X034794Y013219D01*
X034872Y013159D01*
X034963Y013121D01*
X035061Y013108D01*
X035159Y013121D01*
X035250Y013159D01*
X035328Y013219D01*
X035389Y013297D01*
X035426Y013388D01*
X035439Y013486D01*
X035426Y013584D01*
X035389Y013675D01*
X035328Y013754D01*
X035250Y013814D01*
X035173Y013846D01*
Y014402D01*
X035165Y014445D01*
X035140Y014482D01*
X035140Y014482D01*
X024543Y025079D01*
Y031349D01*
X024668D01*
Y032395D01*
X024382D01*
X024363Y032441D01*
X024510Y032588D01*
X024534Y032624D01*
X024543Y032667D01*
X024543Y032667D01*
Y033239D01*
X024668D01*
Y034284D01*
D02*
G37*
G36*
X023880Y032395D02*
X023406D01*
Y031349D01*
X023531D01*
Y023870D01*
X023531Y023870D01*
X023540Y023827D01*
X023564Y023791D01*
X032768Y014587D01*
Y013846D01*
X032691Y013814D01*
X032612Y013754D01*
X032552Y013675D01*
X032515Y013584D01*
X032502Y013486D01*
X032515Y013388D01*
X032552Y013297D01*
X032612Y013219D01*
X032691Y013159D01*
X032782Y013121D01*
X032880Y013108D01*
X032978Y013121D01*
X033069Y013159D01*
X033147Y013219D01*
X033207Y013297D01*
X033245Y013388D01*
X033258Y013486D01*
X033245Y013584D01*
X033207Y013675D01*
X033147Y013754D01*
X033069Y013814D01*
X032992Y013846D01*
Y014633D01*
X032984Y014676D01*
X032959Y014713D01*
X032959Y014713D01*
X023755Y023917D01*
Y031349D01*
X023880D01*
Y032395D01*
D02*
G37*
G36*
X020731D02*
X020256D01*
Y031349D01*
X020381D01*
Y019477D01*
X020381Y019477D01*
X020390Y019434D01*
X020414Y019398D01*
X024043Y015769D01*
Y013846D01*
X023966Y013814D01*
X023888Y013754D01*
X023828Y013675D01*
X023790Y013584D01*
X023777Y013486D01*
X023790Y013388D01*
X023828Y013297D01*
X023888Y013219D01*
X023966Y013159D01*
X024058Y013121D01*
X024155Y013108D01*
X024253Y013121D01*
X024345Y013159D01*
X024423Y013219D01*
X024483Y013297D01*
X024521Y013388D01*
X024534Y013486D01*
X024521Y013584D01*
X024483Y013675D01*
X024423Y013754D01*
X024345Y013814D01*
X024268Y013846D01*
Y015815D01*
X024268Y015815D01*
X024259Y015858D01*
X024235Y015895D01*
X024235Y015895D01*
X020606Y019524D01*
Y031349D01*
X020731D01*
Y032395D01*
D02*
G37*
G36*
X020398Y013715D02*
Y012977D01*
X021136D01*
X021126Y013082D01*
X021081Y013231D01*
X021008Y013368D01*
X020909Y013488D01*
X020789Y013586D01*
X020652Y013660D01*
X020503Y013705D01*
X020398Y013715D01*
D02*
G37*
G36*
X038918Y013715D02*
Y012977D01*
X039656D01*
X039646Y013082D01*
X039601Y013231D01*
X039527Y013368D01*
X039429Y013488D01*
X039309Y013586D01*
X039171Y013660D01*
X039023Y013705D01*
X038918Y013715D01*
D02*
G37*
G36*
X038818D02*
X038713Y013705D01*
X038565Y013660D01*
X038428Y013586D01*
X038307Y013488D01*
X038209Y013368D01*
X038136Y013231D01*
X038091Y013082D01*
X038080Y012977D01*
X038818D01*
Y013715D01*
D02*
G37*
G36*
X020298D02*
X020194Y013705D01*
X020045Y013660D01*
X019908Y013586D01*
X019788Y013488D01*
X019689Y013368D01*
X019616Y013231D01*
X019571Y013082D01*
X019561Y012977D01*
X020298D01*
Y013715D01*
D02*
G37*
G36*
X033475Y012780D02*
Y012418D01*
X033837D01*
X033829Y012477D01*
X033788Y012577D01*
X033721Y012664D01*
X033634Y012731D01*
X033534Y012772D01*
X033475Y012780D01*
D02*
G37*
G36*
X033375Y012780D02*
X033317Y012772D01*
X033216Y012731D01*
X033129Y012664D01*
X033063Y012577D01*
X033021Y012477D01*
X033013Y012418D01*
X033375D01*
Y012780D01*
D02*
G37*
G36*
X021136Y012877D02*
X020398D01*
Y012139D01*
X020503Y012150D01*
X020652Y012195D01*
X020789Y012268D01*
X020909Y012367D01*
X021008Y012487D01*
X021081Y012624D01*
X021126Y012773D01*
X021136Y012877D01*
D02*
G37*
G36*
X039656D02*
X038918D01*
Y012139D01*
X039023Y012150D01*
X039171Y012195D01*
X039309Y012268D01*
X039429Y012367D01*
X039527Y012487D01*
X039601Y012624D01*
X039646Y012773D01*
X039656Y012877D01*
D02*
G37*
G36*
X038818D02*
X038080D01*
X038091Y012773D01*
X038136Y012624D01*
X038209Y012487D01*
X038307Y012367D01*
X038428Y012268D01*
X038565Y012195D01*
X038713Y012150D01*
X038818Y012139D01*
Y012877D01*
D02*
G37*
G36*
X020298D02*
X019561D01*
X019571Y012773D01*
X019616Y012624D01*
X019689Y012487D01*
X019788Y012367D01*
X019908Y012268D01*
X020045Y012195D01*
X020194Y012150D01*
X020298Y012139D01*
Y012877D01*
D02*
G37*
G36*
X035606Y012746D02*
X035508Y012733D01*
X035417Y012696D01*
X035339Y012636D01*
X035279Y012557D01*
X035241Y012466D01*
X035228Y012368D01*
X035241Y012270D01*
X035279Y012179D01*
X035339Y012101D01*
X035417Y012041D01*
X035508Y012003D01*
X035606Y011990D01*
X035704Y012003D01*
X035795Y012041D01*
X035874Y012101D01*
X035934Y012179D01*
X035972Y012270D01*
X035984Y012368D01*
X035972Y012466D01*
X035934Y012557D01*
X035874Y012636D01*
X035795Y012696D01*
X035704Y012733D01*
X035606Y012746D01*
D02*
G37*
G36*
X034516D02*
X034418Y012733D01*
X034327Y012696D01*
X034248Y012636D01*
X034188Y012557D01*
X034150Y012466D01*
X034138Y012368D01*
X034150Y012270D01*
X034188Y012179D01*
X034248Y012101D01*
X034327Y012041D01*
X034418Y012003D01*
X034516Y011990D01*
X034614Y012003D01*
X034705Y012041D01*
X034783Y012101D01*
X034843Y012179D01*
X034881Y012270D01*
X034894Y012368D01*
X034881Y012466D01*
X034843Y012557D01*
X034783Y012636D01*
X034705Y012696D01*
X034614Y012733D01*
X034516Y012746D01*
D02*
G37*
G36*
X032335D02*
X032237Y012733D01*
X032146Y012696D01*
X032067Y012636D01*
X032007Y012557D01*
X031969Y012466D01*
X031956Y012368D01*
X031969Y012270D01*
X032007Y012179D01*
X032067Y012101D01*
X032146Y012041D01*
X032237Y012003D01*
X032335Y011990D01*
X032433Y012003D01*
X032524Y012041D01*
X032602Y012101D01*
X032662Y012179D01*
X032700Y012270D01*
X032713Y012368D01*
X032700Y012466D01*
X032662Y012557D01*
X032602Y012636D01*
X032524Y012696D01*
X032433Y012733D01*
X032335Y012746D01*
D02*
G37*
G36*
X031244D02*
X031146Y012733D01*
X031055Y012696D01*
X030977Y012636D01*
X030917Y012557D01*
X030879Y012466D01*
X030866Y012368D01*
X030879Y012270D01*
X030917Y012179D01*
X030977Y012101D01*
X031055Y012041D01*
X031146Y012003D01*
X031244Y011990D01*
X031342Y012003D01*
X031433Y012041D01*
X031511Y012101D01*
X031572Y012179D01*
X031609Y012270D01*
X031622Y012368D01*
X031609Y012466D01*
X031572Y012557D01*
X031511Y012636D01*
X031433Y012696D01*
X031342Y012733D01*
X031244Y012746D01*
D02*
G37*
G36*
X030154D02*
X030056Y012733D01*
X029964Y012696D01*
X029886Y012636D01*
X029826Y012557D01*
X029788Y012466D01*
X029775Y012368D01*
X029788Y012270D01*
X029826Y012179D01*
X029886Y012101D01*
X029964Y012041D01*
X030056Y012003D01*
X030154Y011990D01*
X030251Y012003D01*
X030343Y012041D01*
X030421Y012101D01*
X030481Y012179D01*
X030519Y012270D01*
X030532Y012368D01*
X030519Y012466D01*
X030481Y012557D01*
X030421Y012636D01*
X030343Y012696D01*
X030251Y012733D01*
X030154Y012746D01*
D02*
G37*
G36*
X029063D02*
X028965Y012733D01*
X028874Y012696D01*
X028796Y012636D01*
X028735Y012557D01*
X028698Y012466D01*
X028685Y012368D01*
X028698Y012270D01*
X028735Y012179D01*
X028796Y012101D01*
X028874Y012041D01*
X028965Y012003D01*
X029063Y011990D01*
X029161Y012003D01*
X029252Y012041D01*
X029330Y012101D01*
X029390Y012179D01*
X029428Y012270D01*
X029441Y012368D01*
X029428Y012466D01*
X029390Y012557D01*
X029330Y012636D01*
X029252Y012696D01*
X029161Y012733D01*
X029063Y012746D01*
D02*
G37*
G36*
X027972D02*
X027875Y012733D01*
X027783Y012696D01*
X027705Y012636D01*
X027645Y012557D01*
X027607Y012466D01*
X027594Y012368D01*
X027607Y012270D01*
X027645Y012179D01*
X027705Y012101D01*
X027783Y012041D01*
X027875Y012003D01*
X027972Y011990D01*
X028070Y012003D01*
X028162Y012041D01*
X028240Y012101D01*
X028300Y012179D01*
X028338Y012270D01*
X028351Y012368D01*
X028338Y012466D01*
X028300Y012557D01*
X028240Y012636D01*
X028162Y012696D01*
X028070Y012733D01*
X027972Y012746D01*
D02*
G37*
G36*
X026882D02*
X026784Y012733D01*
X026693Y012696D01*
X026614Y012636D01*
X026554Y012557D01*
X026517Y012466D01*
X026504Y012368D01*
X026517Y012270D01*
X026554Y012179D01*
X026614Y012101D01*
X026693Y012041D01*
X026784Y012003D01*
X026882Y011990D01*
X026980Y012003D01*
X027071Y012041D01*
X027149Y012101D01*
X027209Y012179D01*
X027247Y012270D01*
X027260Y012368D01*
X027247Y012466D01*
X027209Y012557D01*
X027149Y012636D01*
X027071Y012696D01*
X026980Y012733D01*
X026882Y012746D01*
D02*
G37*
G36*
X025791D02*
X025693Y012733D01*
X025602Y012696D01*
X025524Y012636D01*
X025464Y012557D01*
X025426Y012466D01*
X025413Y012368D01*
X025426Y012270D01*
X025464Y012179D01*
X025524Y012101D01*
X025602Y012041D01*
X025693Y012003D01*
X025791Y011990D01*
X025889Y012003D01*
X025980Y012041D01*
X026059Y012101D01*
X026119Y012179D01*
X026157Y012270D01*
X026170Y012368D01*
X026157Y012466D01*
X026119Y012557D01*
X026059Y012636D01*
X025980Y012696D01*
X025889Y012733D01*
X025791Y012746D01*
D02*
G37*
G36*
X024701D02*
X024603Y012733D01*
X024512Y012696D01*
X024433Y012636D01*
X024373Y012557D01*
X024335Y012466D01*
X024323Y012368D01*
X024335Y012270D01*
X024373Y012179D01*
X024433Y012101D01*
X024512Y012041D01*
X024603Y012003D01*
X024701Y011990D01*
X024799Y012003D01*
X024890Y012041D01*
X024968Y012101D01*
X025028Y012179D01*
X025066Y012270D01*
X025079Y012368D01*
X025066Y012466D01*
X025028Y012557D01*
X024968Y012636D01*
X024890Y012696D01*
X024799Y012733D01*
X024701Y012746D01*
D02*
G37*
G36*
X023610D02*
X023512Y012733D01*
X023421Y012696D01*
X023343Y012636D01*
X023283Y012557D01*
X023245Y012466D01*
X023232Y012368D01*
X023245Y012270D01*
X023283Y012179D01*
X023343Y012101D01*
X023421Y012041D01*
X023512Y012003D01*
X023610Y011990D01*
X023708Y012003D01*
X023799Y012041D01*
X023878Y012101D01*
X023938Y012179D01*
X023976Y012270D01*
X023988Y012368D01*
X023976Y012466D01*
X023938Y012557D01*
X023878Y012636D01*
X023799Y012696D01*
X023708Y012733D01*
X023610Y012746D01*
D02*
G37*
G36*
X033837Y012318D02*
X033475D01*
Y011956D01*
X033534Y011964D01*
X033634Y012006D01*
X033721Y012072D01*
X033788Y012159D01*
X033829Y012260D01*
X033837Y012318D01*
D02*
G37*
G36*
X033375D02*
X033013D01*
X033021Y012260D01*
X033063Y012159D01*
X033129Y012072D01*
X033216Y012006D01*
X033317Y011964D01*
X033375Y011956D01*
Y012318D01*
D02*
G37*
G36*
X017282Y012756D02*
X017145Y012738D01*
X017018Y012685D01*
X016908Y012601D01*
X016824Y012491D01*
X016771Y012364D01*
X016753Y012227D01*
X016771Y012090D01*
X016824Y011962D01*
X016908Y011853D01*
X017018Y011769D01*
X017145Y011716D01*
X017282Y011698D01*
X017419Y011716D01*
X017547Y011769D01*
X017656Y011853D01*
X017740Y011962D01*
X017793Y012090D01*
X017811Y012227D01*
X017793Y012364D01*
X017740Y012491D01*
X017656Y012601D01*
X017547Y012685D01*
X017419Y012738D01*
X017282Y012756D01*
D02*
G37*
G36*
X013739D02*
X013602Y012738D01*
X013474Y012685D01*
X013365Y012601D01*
X013281Y012491D01*
X013228Y012364D01*
X013210Y012227D01*
X013228Y012090D01*
X013281Y011962D01*
X013365Y011853D01*
X013474Y011769D01*
X013602Y011716D01*
X013739Y011698D01*
X013876Y011716D01*
X014003Y011769D01*
X014113Y011853D01*
X014197Y011962D01*
X014250Y012090D01*
X014268Y012227D01*
X014250Y012364D01*
X014197Y012491D01*
X014113Y012601D01*
X014003Y012685D01*
X013876Y012738D01*
X013739Y012756D01*
D02*
G37*
G36*
X033593Y011117D02*
Y010820D01*
X033890D01*
X033884Y010861D01*
X033849Y010947D01*
X033793Y011020D01*
X033720Y011076D01*
X033635Y011111D01*
X033593Y011117D01*
D02*
G37*
G36*
X033493D02*
X033452Y011111D01*
X033367Y011076D01*
X033294Y011020D01*
X033237Y010947D01*
X033202Y010861D01*
X033197Y010820D01*
X033493D01*
Y011117D01*
D02*
G37*
G36*
X029793D02*
Y010820D01*
X030090D01*
X030084Y010861D01*
X030049Y010947D01*
X029993Y011020D01*
X029920Y011076D01*
X029835Y011111D01*
X029793Y011117D01*
D02*
G37*
G36*
X029693D02*
X029652Y011111D01*
X029567Y011076D01*
X029494Y011020D01*
X029437Y010947D01*
X029402Y010861D01*
X029397Y010820D01*
X029693D01*
Y011117D01*
D02*
G37*
G36*
X026093Y011017D02*
Y010720D01*
X026390D01*
X026384Y010761D01*
X026349Y010847D01*
X026293Y010920D01*
X026220Y010976D01*
X026135Y011011D01*
X026093Y011017D01*
D02*
G37*
G36*
X025993D02*
X025952Y011011D01*
X025867Y010976D01*
X025794Y010920D01*
X025737Y010847D01*
X025702Y010761D01*
X025697Y010720D01*
X025993D01*
Y011017D01*
D02*
G37*
G36*
X021893Y010917D02*
Y010620D01*
X022190D01*
X022184Y010661D01*
X022149Y010747D01*
X022093Y010820D01*
X022020Y010876D01*
X021935Y010911D01*
X021893Y010917D01*
D02*
G37*
G36*
X021793D02*
X021752Y010911D01*
X021667Y010876D01*
X021594Y010820D01*
X021537Y010747D01*
X021502Y010661D01*
X021497Y010620D01*
X021793D01*
Y010917D01*
D02*
G37*
G36*
X037800Y010726D02*
Y010430D01*
X038096D01*
X038091Y010471D01*
X038056Y010556D01*
X038000Y010630D01*
X037926Y010686D01*
X037841Y010721D01*
X037800Y010726D01*
D02*
G37*
G36*
X037700D02*
X037659Y010721D01*
X037573Y010686D01*
X037500Y010630D01*
X037444Y010556D01*
X037409Y010471D01*
X037404Y010430D01*
X037700D01*
Y010726D01*
D02*
G37*
G36*
X033890Y010720D02*
X033593D01*
Y010424D01*
X033635Y010429D01*
X033720Y010464D01*
X033793Y010520D01*
X033849Y010594D01*
X033884Y010679D01*
X033890Y010720D01*
D02*
G37*
G36*
X033493D02*
X033197D01*
X033202Y010679D01*
X033237Y010594D01*
X033294Y010520D01*
X033367Y010464D01*
X033452Y010429D01*
X033493Y010424D01*
Y010720D01*
D02*
G37*
G36*
X030090D02*
X029793D01*
Y010424D01*
X029835Y010429D01*
X029920Y010464D01*
X029993Y010520D01*
X030049Y010594D01*
X030084Y010679D01*
X030090Y010720D01*
D02*
G37*
G36*
X029693D02*
X029397D01*
X029402Y010679D01*
X029437Y010594D01*
X029494Y010520D01*
X029567Y010464D01*
X029652Y010429D01*
X029693Y010424D01*
Y010720D01*
D02*
G37*
G36*
X026390Y010620D02*
X026093D01*
Y010324D01*
X026135Y010329D01*
X026220Y010364D01*
X026293Y010420D01*
X026349Y010494D01*
X026384Y010579D01*
X026390Y010620D01*
D02*
G37*
G36*
X025993D02*
X025697D01*
X025702Y010579D01*
X025737Y010494D01*
X025794Y010420D01*
X025867Y010364D01*
X025952Y010329D01*
X025993Y010324D01*
Y010620D01*
D02*
G37*
G36*
X022190Y010520D02*
X021893D01*
Y010224D01*
X021935Y010229D01*
X022020Y010264D01*
X022093Y010320D01*
X022149Y010394D01*
X022184Y010479D01*
X022190Y010520D01*
D02*
G37*
G36*
X021793D02*
X021497D01*
X021502Y010479D01*
X021537Y010394D01*
X021594Y010320D01*
X021667Y010264D01*
X021752Y010229D01*
X021793Y010224D01*
Y010520D01*
D02*
G37*
G36*
X038096Y010330D02*
X037800D01*
Y010034D01*
X037841Y010039D01*
X037926Y010074D01*
X038000Y010130D01*
X038056Y010203D01*
X038091Y010289D01*
X038096Y010330D01*
D02*
G37*
G36*
X037700D02*
X037404D01*
X037409Y010289D01*
X037444Y010203D01*
X037500Y010130D01*
X037573Y010074D01*
X037659Y010039D01*
X037700Y010034D01*
Y010330D01*
D02*
G37*
G36*
X017293Y010498D02*
Y009985D01*
X017806D01*
X017793Y010083D01*
X017736Y010220D01*
X017645Y010338D01*
X017527Y010428D01*
X017390Y010485D01*
X017293Y010498D01*
D02*
G37*
G36*
X017193Y010498D02*
X017095Y010485D01*
X016958Y010428D01*
X016840Y010338D01*
X016750Y010220D01*
X016693Y010083D01*
X016680Y009985D01*
X017193D01*
Y010498D01*
D02*
G37*
G36*
X013749D02*
Y009985D01*
X014262D01*
X014249Y010083D01*
X014193Y010220D01*
X014102Y010338D01*
X013984Y010428D01*
X013847Y010485D01*
X013749Y010498D01*
D02*
G37*
G36*
X013649D02*
X013552Y010485D01*
X013415Y010428D01*
X013297Y010338D01*
X013206Y010220D01*
X013149Y010083D01*
X013137Y009985D01*
X013649D01*
Y010498D01*
D02*
G37*
%LPD*%
D10*
X020494Y019477D02*
Y031872D01*
Y019477D02*
X024155Y015815D01*
Y013486D02*
Y015815D01*
X020095Y033762D02*
X020494D01*
X023073Y013490D02*
Y015808D01*
X021281Y020871D02*
Y031872D01*
Y020871D02*
X026337Y015815D01*
Y013486D02*
Y015815D01*
X025246Y013486D02*
Y015815D01*
X022068Y021045D02*
Y031872D01*
Y021045D02*
X028518Y014596D01*
Y013486D02*
Y014596D01*
X027427Y013486D02*
Y015036D01*
X022856Y022708D02*
Y031872D01*
Y022708D02*
X030699Y014864D01*
Y013486D02*
Y014864D01*
X022493Y033399D02*
X022856Y033762D01*
X022493Y021720D02*
Y033399D01*
Y021720D02*
X029608Y014605D01*
Y013486D02*
Y014605D01*
X023643Y023870D02*
Y031872D01*
Y023870D02*
X032880Y014633D01*
Y013486D02*
Y014633D01*
X031789Y013486D02*
Y014674D01*
X024431Y025033D02*
Y031872D01*
Y025033D02*
X035061Y014402D01*
Y013486D02*
Y014402D01*
X024431Y032667D02*
Y033762D01*
X024143Y032380D02*
X024431Y032667D01*
X024143Y024220D02*
Y032380D01*
Y024220D02*
X033970Y014393D01*
Y013486D02*
Y014393D01*
X025218Y032945D02*
Y033762D01*
X024843Y032570D02*
X025218Y032945D01*
X024843Y025070D02*
Y032570D01*
Y025070D02*
X036152Y013762D01*
Y013486D02*
Y013762D01*
X025218Y030845D02*
X025243Y030820D01*
X025218Y030845D02*
Y031872D01*
X026005Y030832D02*
Y031872D01*
X025993Y030820D02*
X026005Y030832D01*
X026793Y030820D02*
Y031872D01*
Y030820D02*
X026793Y030820D01*
X027580Y030833D02*
Y031872D01*
Y030833D02*
X027593Y030820D01*
X028368Y030845D02*
Y031872D01*
X028343Y030820D02*
X028368Y030845D01*
X029155Y030832D02*
Y031872D01*
X029143Y030820D02*
X029155Y030832D01*
X029942Y030869D02*
Y031872D01*
X029893Y030820D02*
X029942Y030869D01*
X026005Y033762D02*
Y034708D01*
X025993Y034720D02*
X026005Y034708D01*
X026793Y033762D02*
Y034720D01*
X026793Y034720D01*
X027580Y033762D02*
Y034707D01*
X027593Y034720D01*
X028368Y033762D02*
Y034695D01*
X028393Y034720D01*
X014487Y013046D02*
Y014164D01*
Y010880D02*
Y013046D01*
X029942Y033762D02*
Y034821D01*
X028993Y035770D02*
X029942Y034821D01*
X019693Y035770D02*
X028993D01*
X014487Y014164D02*
X017343Y017020D01*
Y033420D01*
X019693Y035770D01*
X030730Y033762D02*
Y034507D01*
X031043Y034820D01*
X031443D01*
X031643Y034620D01*
Y031170D02*
Y034620D01*
X031193Y030720D02*
X031643Y031170D01*
X030443Y030720D02*
X031193D01*
X030293Y030870D02*
X030443Y030720D01*
X030293Y030870D02*
Y032520D01*
X030143Y032670D02*
X030293Y032520D01*
X026143Y032670D02*
X030143D01*
X025593Y033220D02*
X026143Y032670D01*
X025593Y033220D02*
Y034670D01*
X025243Y035020D02*
X025593Y034670D01*
X020593Y035020D02*
X025243D01*
X030730Y031872D02*
Y032633D01*
X030393Y032970D02*
X030730Y032633D01*
X029743Y032970D02*
X030393D01*
X018030Y013046D02*
Y033157D01*
X022068Y032945D02*
Y033762D01*
X021693Y020770D02*
X027427Y015036D01*
X021693Y020770D02*
Y032570D01*
X022068Y032945D01*
X021281Y033166D02*
Y033762D01*
X020893Y020168D02*
X025246Y015815D01*
X020893Y020168D02*
Y032779D01*
X021281Y033166D01*
X023243Y023220D02*
X031789Y014674D01*
X023243Y023220D02*
Y032720D01*
X023643Y033120D01*
Y033762D01*
X018030Y033157D02*
X020343Y035470D01*
X019303Y032970D02*
X020095Y033762D01*
X019303Y019577D02*
Y032970D01*
Y019577D02*
X023073Y015808D01*
X018030Y010880D02*
X018993Y011843D01*
Y033420D01*
X020593Y035020D01*
X020343Y035470D02*
X028793D01*
X029593Y033120D02*
X029743Y032970D01*
X029593Y033120D02*
Y034670D01*
X028793Y035470D02*
X029593Y034670D01*
D11*
X031789Y013486D02*
D03*
X033970D02*
D03*
X032880D02*
D03*
X035061D02*
D03*
X036152D02*
D03*
X030699D02*
D03*
X024155D02*
D03*
X029608D02*
D03*
X028518D02*
D03*
X026337D02*
D03*
X027427D02*
D03*
X025246D02*
D03*
X024701Y012368D02*
D03*
X026882D02*
D03*
X025791D02*
D03*
X027972D02*
D03*
X029063D02*
D03*
X023610D02*
D03*
X030154D02*
D03*
X035606D02*
D03*
X034516D02*
D03*
X032335D02*
D03*
X033425D02*
D03*
X031244D02*
D03*
X023073Y013490D02*
D03*
D12*
X020348Y012927D02*
D03*
X038868D02*
D03*
D13*
X017243Y009935D02*
D03*
X018030Y010880D02*
D03*
X017282Y012227D02*
D03*
X018030Y013046D02*
D03*
X017282Y014502D02*
D03*
X013699Y009935D02*
D03*
X014487Y010880D02*
D03*
X013739Y012227D02*
D03*
X014487Y013046D02*
D03*
X013739Y014502D02*
D03*
D14*
X015550Y014080D02*
D03*
X037750Y010380D02*
D03*
X037686Y014320D02*
D03*
X025243Y030820D02*
D03*
X025993Y034720D02*
D03*
Y030820D02*
D03*
X026793D02*
D03*
X027593D02*
D03*
X028343D02*
D03*
X029143D02*
D03*
X029893D02*
D03*
X026793Y034720D02*
D03*
X027593D02*
D03*
X028393D02*
D03*
X020643Y016220D02*
D03*
X019693Y026870D02*
D03*
X030493Y035220D02*
D03*
X017443Y034320D02*
D03*
X031343Y022270D02*
D03*
X031543Y028320D02*
D03*
X033543Y010770D02*
D03*
X029743D02*
D03*
X026043Y010670D02*
D03*
X021843Y010570D02*
D03*
D15*
X030730Y033762D02*
D03*
Y031872D02*
D03*
X029942D02*
D03*
Y033762D02*
D03*
X028368D02*
D03*
Y031872D02*
D03*
X029155D02*
D03*
Y033762D02*
D03*
X026005D02*
D03*
Y031872D02*
D03*
X025218D02*
D03*
Y033762D02*
D03*
X026793D02*
D03*
Y031872D02*
D03*
X027580D02*
D03*
Y033762D02*
D03*
X022856D02*
D03*
Y031872D02*
D03*
X022068D02*
D03*
Y033762D02*
D03*
X020494D02*
D03*
Y031872D02*
D03*
X021281D02*
D03*
Y033762D02*
D03*
X024431D02*
D03*
Y031872D02*
D03*
X023643D02*
D03*
Y033762D02*
D03*
D16*
X029143Y033750D02*
D03*
M02*
