M48
;Layer_Color=9474304
;FILE_FORMAT=2:4
INCH
;TYPE=PLATED
T1F00S00C0.0280
T2F00S00C0.0472
T3F00S00C0.0571
T4F00S00C0.0787
T5F00S00C0.1378
%
T01
X015550Y014080
X021843Y010570
X026043Y010670
X029743Y010770
X033543
X037750Y010380
X037686Y014320
X031343Y022270
X031543Y028320
X029893Y030820
X029143
X028343
X027593
X026793
X025993
X025243
X019693Y026870
X020643Y016220
X017443Y034320
X025993Y034720
X026793
X027593
X028393
X030493Y035220
T02
X023610Y012368
X024701
X025791
X026882
X027972
X029063
X030154
X031244
X030699Y013486
X029608
X028518
X027427
X026337
X025246
X024155
X023073Y013490
X031789Y013486
X032880
X033970
X035061
X036152
X035606Y012368
X034516
X033425
X032335
T03
X019805Y032423
T04
X013699Y009935
X014487Y010880
X013739Y012227
X014487Y013046
X013739Y014502
X017282
X018030Y013046
X017282Y012227
X018030Y010880
X017243Y009935
T05
X020348Y012927
X038868
M30
