G04 Layer_Color=2752767*
%FSAX24Y24*%
%MOIN*%
G70*
G01*
G75*
%ADD10C,0.0100*%
%ADD22C,0.0020*%
%ADD23C,0.0027*%
%ADD24C,0.0160*%
%ADD25C,0.0080*%
D10*
X048467Y007889D02*
Y007289D01*
X048766D01*
X048866Y007389D01*
Y007789D01*
X048766Y007889D01*
X048467D01*
X049066Y007689D02*
Y007289D01*
Y007489D01*
X049166Y007589D01*
X049266Y007689D01*
X049366D01*
X049666Y007289D02*
X049866D01*
X049766D01*
Y007689D01*
X049666D01*
X050166Y007289D02*
X050366D01*
X050266D01*
Y007889D01*
X050166D01*
X050666Y007289D02*
X050866D01*
X050766D01*
Y007889D01*
X050666D01*
X051765D02*
Y007289D01*
X052065D01*
X052165Y007389D01*
Y007789D01*
X052065Y007889D01*
X051765D01*
X052365Y007689D02*
Y007289D01*
Y007489D01*
X052465Y007589D01*
X052565Y007689D01*
X052665D01*
X053065D02*
X053265D01*
X053365Y007589D01*
Y007289D01*
X053065D01*
X052965Y007389D01*
X053065Y007489D01*
X053365D01*
X053565Y007689D02*
Y007389D01*
X053665Y007289D01*
X053765Y007389D01*
X053865Y007289D01*
X053965Y007389D01*
Y007689D01*
X054165Y007289D02*
X054365D01*
X054265D01*
Y007689D01*
X054165D01*
X054665Y007289D02*
Y007689D01*
X054964D01*
X055064Y007589D01*
Y007289D01*
X055464Y007089D02*
X055564D01*
X055664Y007189D01*
Y007689D01*
X055364D01*
X055264Y007589D01*
Y007389D01*
X055364Y007289D01*
X055664D01*
X055864D02*
Y007389D01*
X055964D01*
Y007289D01*
X055864D01*
X053905Y016045D02*
X053505D01*
X053905Y016445D01*
Y016545D01*
X053805Y016645D01*
X053605D01*
X053505Y016545D01*
X054405Y016045D02*
Y016645D01*
X054105Y016345D01*
X054505D01*
X060863Y016045D02*
X060463D01*
X060863Y016445D01*
Y016545D01*
X060763Y016645D01*
X060563D01*
X060463Y016545D01*
X061063D02*
X061163Y016645D01*
X061363D01*
X061463Y016545D01*
Y016445D01*
X061363Y016345D01*
X061463Y016245D01*
Y016145D01*
X061363Y016045D01*
X061163D01*
X061063Y016145D01*
Y016245D01*
X061163Y016345D01*
X061063Y016445D01*
Y016545D01*
X061163Y016345D02*
X061363D01*
X061663Y016045D02*
Y016445D01*
X061763D01*
X061863Y016345D01*
Y016045D01*
Y016345D01*
X061963Y016445D01*
X062063Y016345D01*
Y016045D01*
X062263D02*
X062463D01*
X062363D01*
Y016445D01*
X062263D01*
X062763Y016045D02*
X062963D01*
X062863D01*
Y016645D01*
X062763D01*
X064062Y016045D02*
X063862Y016245D01*
Y016445D01*
X064062Y016645D01*
X064362Y016545D02*
X064462Y016645D01*
X064662D01*
X064762Y016545D01*
Y016145D01*
X064662Y016045D01*
X064462D01*
X064362Y016145D01*
Y016545D01*
X064962Y016045D02*
Y016145D01*
X065062D01*
Y016045D01*
X064962D01*
X065462Y016645D02*
X065862D01*
Y016545D01*
X065462Y016145D01*
Y016045D01*
X066062D02*
X066262D01*
X066162D01*
Y016645D01*
X066062Y016545D01*
X066561Y016045D02*
X066761D01*
X066661D01*
Y016645D01*
X066561Y016545D01*
X067461Y016045D02*
X067061D01*
X067461Y016445D01*
Y016545D01*
X067361Y016645D01*
X067161D01*
X067061Y016545D01*
X067661Y016045D02*
Y016445D01*
X067761D01*
X067861Y016345D01*
Y016045D01*
Y016345D01*
X067961Y016445D01*
X068061Y016345D01*
Y016045D01*
X068261D02*
Y016445D01*
X068361D01*
X068461Y016345D01*
Y016045D01*
Y016345D01*
X068561Y016445D01*
X068661Y016345D01*
Y016045D01*
X068861D02*
X069061Y016245D01*
Y016445D01*
X068861Y016645D01*
X073899Y016045D02*
Y016645D01*
X074199D01*
X074299Y016545D01*
Y016345D01*
X074199Y016245D01*
X073899D01*
X074499Y016645D02*
X074899D01*
X074699D01*
Y016045D01*
X075099Y016645D02*
Y016045D01*
Y016345D01*
X075499D01*
Y016645D01*
Y016045D01*
X078938D02*
Y016645D01*
X079238D01*
X079338Y016545D01*
Y016345D01*
X079238Y016245D01*
X078938D01*
X079138D02*
X079338Y016045D01*
X079638D02*
X079838D01*
X079938Y016145D01*
Y016345D01*
X079838Y016445D01*
X079638D01*
X079538Y016345D01*
Y016145D01*
X079638Y016045D01*
X080138Y016445D02*
Y016145D01*
X080238Y016045D01*
X080538D01*
Y016445D01*
X080738Y016045D02*
Y016445D01*
X081038D01*
X081138Y016345D01*
Y016045D01*
X081737Y016645D02*
Y016045D01*
X081437D01*
X081337Y016145D01*
Y016345D01*
X081437Y016445D01*
X081737D01*
X053905Y014845D02*
X053505D01*
X053905Y015245D01*
Y015345D01*
X053805Y015445D01*
X053605D01*
X053505Y015345D01*
X054505Y015445D02*
X054105D01*
Y015145D01*
X054305Y015245D01*
X054405D01*
X054505Y015145D01*
Y014945D01*
X054405Y014845D01*
X054205D01*
X054105Y014945D01*
X060763Y014845D02*
Y015445D01*
X060463Y015145D01*
X060863D01*
X061063Y015445D02*
X061463D01*
Y015345D01*
X061063Y014945D01*
Y014845D01*
X061663D02*
Y014945D01*
X061763D01*
Y014845D01*
X061663D01*
X062563D02*
X062163D01*
X062563Y015245D01*
Y015345D01*
X062463Y015445D01*
X062263D01*
X062163Y015345D01*
X063063Y014845D02*
Y015445D01*
X062763Y015145D01*
X063163D01*
X063662Y014845D02*
Y015445D01*
X063362Y015145D01*
X063762D01*
X063962Y014845D02*
Y015245D01*
X064062D01*
X064162Y015145D01*
Y014845D01*
Y015145D01*
X064262Y015245D01*
X064362Y015145D01*
Y014845D01*
X064562D02*
X064762D01*
X064662D01*
Y015245D01*
X064562D01*
X065062Y014845D02*
X065262D01*
X065162D01*
Y015445D01*
X065062D01*
X066361Y014845D02*
X066162Y015045D01*
Y015245D01*
X066361Y015445D01*
X066661Y014845D02*
X066861D01*
X066761D01*
Y015445D01*
X066661Y015345D01*
X067161Y014845D02*
Y014945D01*
X067261D01*
Y014845D01*
X067161D01*
X068061D02*
X067661D01*
X068061Y015245D01*
Y015345D01*
X067961Y015445D01*
X067761D01*
X067661Y015345D01*
X068261Y014845D02*
Y015245D01*
X068361D01*
X068461Y015145D01*
Y014845D01*
Y015145D01*
X068561Y015245D01*
X068661Y015145D01*
Y014845D01*
X068861D02*
Y015245D01*
X068961D01*
X069061Y015145D01*
Y014845D01*
Y015145D01*
X069161Y015245D01*
X069261Y015145D01*
Y014845D01*
X069461D02*
X069660Y015045D01*
Y015245D01*
X069461Y015445D01*
X073899Y014845D02*
Y015445D01*
X074199D01*
X074299Y015345D01*
Y015145D01*
X074199Y015045D01*
X073899D01*
X074499Y015445D02*
X074899D01*
X074699D01*
Y014845D01*
X075099Y015445D02*
Y014845D01*
Y015145D01*
X075499D01*
Y015445D01*
Y014845D01*
X078938D02*
Y015445D01*
X079238D01*
X079338Y015345D01*
Y015145D01*
X079238Y015045D01*
X078938D01*
X079138D02*
X079338Y014845D01*
X079638D02*
X079838D01*
X079938Y014945D01*
Y015145D01*
X079838Y015245D01*
X079638D01*
X079538Y015145D01*
Y014945D01*
X079638Y014845D01*
X080138Y015245D02*
Y014945D01*
X080238Y014845D01*
X080538D01*
Y015245D01*
X080738Y014845D02*
Y015245D01*
X081038D01*
X081138Y015145D01*
Y014845D01*
X081737Y015445D02*
Y014845D01*
X081437D01*
X081337Y014945D01*
Y015145D01*
X081437Y015245D01*
X081737D01*
X053505Y013645D02*
X053705D01*
X053605D01*
Y014245D01*
X053505Y014145D01*
X060863Y014245D02*
X060463D01*
Y013945D01*
X060663Y014045D01*
X060763D01*
X060863Y013945D01*
Y013745D01*
X060763Y013645D01*
X060563D01*
X060463Y013745D01*
X061063Y014245D02*
X061463D01*
Y014145D01*
X061063Y013745D01*
Y013645D01*
X061663D02*
Y013745D01*
X061763D01*
Y013645D01*
X061663D01*
X062163Y014145D02*
X062263Y014245D01*
X062463D01*
X062563Y014145D01*
Y013745D01*
X062463Y013645D01*
X062263D01*
X062163Y013745D01*
Y014145D01*
X062763D02*
X062863Y014245D01*
X063063D01*
X063163Y014145D01*
Y014045D01*
X063063Y013945D01*
X063163Y013845D01*
Y013745D01*
X063063Y013645D01*
X062863D01*
X062763Y013745D01*
Y013845D01*
X062863Y013945D01*
X062763Y014045D01*
Y014145D01*
X062863Y013945D02*
X063063D01*
X063362Y014245D02*
X063762D01*
Y014145D01*
X063362Y013745D01*
Y013645D01*
X063962D02*
Y014045D01*
X064062D01*
X064162Y013945D01*
Y013645D01*
Y013945D01*
X064262Y014045D01*
X064362Y013945D01*
Y013645D01*
X064562D02*
X064762D01*
X064662D01*
Y014045D01*
X064562D01*
X065062Y013645D02*
X065262D01*
X065162D01*
Y014245D01*
X065062D01*
X066361Y013645D02*
X066162Y013845D01*
Y014045D01*
X066361Y014245D01*
X066661Y013645D02*
X066861D01*
X066761D01*
Y014245D01*
X066661Y014145D01*
X067161Y013645D02*
Y013745D01*
X067261D01*
Y013645D01*
X067161D01*
X067961D02*
Y014245D01*
X067661Y013945D01*
X068061D01*
X068661Y014245D02*
X068261D01*
Y013945D01*
X068461Y014045D01*
X068561D01*
X068661Y013945D01*
Y013745D01*
X068561Y013645D01*
X068361D01*
X068261Y013745D01*
X068861Y013645D02*
Y014045D01*
X068961D01*
X069061Y013945D01*
Y013645D01*
Y013945D01*
X069161Y014045D01*
X069261Y013945D01*
Y013645D01*
X069461D02*
Y014045D01*
X069560D01*
X069660Y013945D01*
Y013645D01*
Y013945D01*
X069760Y014045D01*
X069860Y013945D01*
Y013645D01*
X070060D02*
X070260Y013845D01*
Y014045D01*
X070060Y014245D01*
X073899Y013645D02*
Y014245D01*
X074199D01*
X074299Y014145D01*
Y013945D01*
X074199Y013845D01*
X073899D01*
X074499Y014245D02*
X074899D01*
X074699D01*
Y013645D01*
X075099Y014245D02*
Y013645D01*
Y013945D01*
X075499D01*
Y014245D01*
Y013645D01*
X078938D02*
Y014245D01*
X079238D01*
X079338Y014145D01*
Y013945D01*
X079238Y013845D01*
X078938D01*
X079138D02*
X079338Y013645D01*
X079638D02*
X079838D01*
X079938Y013745D01*
Y013945D01*
X079838Y014045D01*
X079638D01*
X079538Y013945D01*
Y013745D01*
X079638Y013645D01*
X080138Y014045D02*
Y013745D01*
X080238Y013645D01*
X080538D01*
Y014045D01*
X080738Y013645D02*
Y014045D01*
X081038D01*
X081138Y013945D01*
Y013645D01*
X081737Y014245D02*
Y013645D01*
X081437D01*
X081337Y013745D01*
Y013945D01*
X081437Y014045D01*
X081737D01*
X053505Y012445D02*
X053705D01*
X053605D01*
Y013045D01*
X053505Y012945D01*
X054005D02*
X054105Y013045D01*
X054305D01*
X054405Y012945D01*
Y012545D01*
X054305Y012445D01*
X054105D01*
X054005Y012545D01*
Y012945D01*
X060463Y013045D02*
X060863D01*
Y012945D01*
X060463Y012545D01*
Y012445D01*
X061063Y012945D02*
X061163Y013045D01*
X061363D01*
X061463Y012945D01*
Y012845D01*
X061363Y012745D01*
X061463Y012645D01*
Y012545D01*
X061363Y012445D01*
X061163D01*
X061063Y012545D01*
Y012645D01*
X061163Y012745D01*
X061063Y012845D01*
Y012945D01*
X061163Y012745D02*
X061363D01*
X061663Y012445D02*
Y012545D01*
X061763D01*
Y012445D01*
X061663D01*
X062163Y013045D02*
X062563D01*
Y012945D01*
X062163Y012545D01*
Y012445D01*
X063063D02*
Y013045D01*
X062763Y012745D01*
X063163D01*
X063362Y012445D02*
Y012845D01*
X063462D01*
X063562Y012745D01*
Y012445D01*
Y012745D01*
X063662Y012845D01*
X063762Y012745D01*
Y012445D01*
X063962D02*
X064162D01*
X064062D01*
Y012845D01*
X063962D01*
X064462Y012445D02*
X064662D01*
X064562D01*
Y013045D01*
X064462D01*
X065762Y012445D02*
X065562Y012645D01*
Y012845D01*
X065762Y013045D01*
X066461Y012445D02*
X066062D01*
X066461Y012845D01*
Y012945D01*
X066361Y013045D01*
X066162D01*
X066062Y012945D01*
X066661Y012445D02*
Y012845D01*
X066761D01*
X066861Y012745D01*
Y012445D01*
Y012745D01*
X066961Y012845D01*
X067061Y012745D01*
Y012445D01*
X067261D02*
Y012845D01*
X067361D01*
X067461Y012745D01*
Y012445D01*
Y012745D01*
X067561Y012845D01*
X067661Y012745D01*
Y012445D01*
X067861D02*
X068061Y012645D01*
Y012845D01*
X067861Y013045D01*
X073899Y012445D02*
Y013045D01*
X074199D01*
X074299Y012945D01*
Y012745D01*
X074199Y012645D01*
X073899D01*
X074499Y013045D02*
X074899D01*
X074699D01*
Y012445D01*
X075099Y013045D02*
Y012445D01*
Y012745D01*
X075499D01*
Y013045D01*
Y012445D01*
X078938D02*
Y013045D01*
X079238D01*
X079338Y012945D01*
Y012745D01*
X079238Y012645D01*
X078938D01*
X079138D02*
X079338Y012445D01*
X079638D02*
X079838D01*
X079938Y012545D01*
Y012745D01*
X079838Y012845D01*
X079638D01*
X079538Y012745D01*
Y012545D01*
X079638Y012445D01*
X080138Y012845D02*
Y012545D01*
X080238Y012445D01*
X080538D01*
Y012845D01*
X080738Y012445D02*
Y012845D01*
X081038D01*
X081138Y012745D01*
Y012445D01*
X081737Y013045D02*
Y012445D01*
X081437D01*
X081337Y012545D01*
Y012745D01*
X081437Y012845D01*
X081737D01*
X053905Y011245D02*
X053505D01*
X053905Y011645D01*
Y011745D01*
X053805Y011845D01*
X053605D01*
X053505Y011745D01*
X060463Y011245D02*
X060663D01*
X060563D01*
Y011845D01*
X060463Y011745D01*
X060963D02*
X061063Y011845D01*
X061263D01*
X061363Y011745D01*
Y011645D01*
X061263Y011545D01*
X061163D01*
X061263D01*
X061363Y011445D01*
Y011345D01*
X061263Y011245D01*
X061063D01*
X060963Y011345D01*
X061563Y011845D02*
X061963D01*
Y011745D01*
X061563Y011345D01*
Y011245D01*
X062163D02*
Y011345D01*
X062263D01*
Y011245D01*
X062163D01*
X062663Y011845D02*
X063063D01*
Y011745D01*
X062663Y011345D01*
Y011245D01*
X063263Y011345D02*
X063362Y011245D01*
X063562D01*
X063662Y011345D01*
Y011745D01*
X063562Y011845D01*
X063362D01*
X063263Y011745D01*
Y011645D01*
X063362Y011545D01*
X063662D01*
X064262Y011845D02*
X063862D01*
Y011545D01*
X064062Y011645D01*
X064162D01*
X064262Y011545D01*
Y011345D01*
X064162Y011245D01*
X063962D01*
X063862Y011345D01*
X064462Y011245D02*
Y011645D01*
X064562D01*
X064662Y011545D01*
Y011245D01*
Y011545D01*
X064762Y011645D01*
X064862Y011545D01*
Y011245D01*
X065062D02*
X065262D01*
X065162D01*
Y011645D01*
X065062D01*
X065562Y011245D02*
X065762D01*
X065662D01*
Y011845D01*
X065562D01*
X066861Y011245D02*
X066661Y011445D01*
Y011645D01*
X066861Y011845D01*
X067161Y011745D02*
X067261Y011845D01*
X067461D01*
X067561Y011745D01*
Y011645D01*
X067461Y011545D01*
X067361D01*
X067461D01*
X067561Y011445D01*
Y011345D01*
X067461Y011245D01*
X067261D01*
X067161Y011345D01*
X067761Y011245D02*
Y011345D01*
X067861D01*
Y011245D01*
X067761D01*
X068661Y011845D02*
X068261D01*
Y011545D01*
X068461Y011645D01*
X068561D01*
X068661Y011545D01*
Y011345D01*
X068561Y011245D01*
X068361D01*
X068261Y011345D01*
X068861Y011245D02*
Y011645D01*
X068961D01*
X069061Y011545D01*
Y011245D01*
Y011545D01*
X069161Y011645D01*
X069261Y011545D01*
Y011245D01*
X069461D02*
Y011645D01*
X069560D01*
X069660Y011545D01*
Y011245D01*
Y011545D01*
X069760Y011645D01*
X069860Y011545D01*
Y011245D01*
X070060D02*
X070260Y011445D01*
Y011645D01*
X070060Y011845D01*
X073899Y011245D02*
Y011845D01*
X074199D01*
X074299Y011745D01*
Y011545D01*
X074199Y011445D01*
X073899D01*
X074499Y011845D02*
X074899D01*
X074699D01*
Y011245D01*
X075099Y011845D02*
Y011245D01*
Y011545D01*
X075499D01*
Y011845D01*
Y011245D01*
X078938D02*
Y011845D01*
X079238D01*
X079338Y011745D01*
Y011545D01*
X079238Y011445D01*
X078938D01*
X079138D02*
X079338Y011245D01*
X079638D02*
X079838D01*
X079938Y011345D01*
Y011545D01*
X079838Y011645D01*
X079638D01*
X079538Y011545D01*
Y011345D01*
X079638Y011245D01*
X080138Y011645D02*
Y011345D01*
X080238Y011245D01*
X080538D01*
Y011645D01*
X080738Y011245D02*
Y011645D01*
X081038D01*
X081138Y011545D01*
Y011245D01*
X081737Y011845D02*
Y011245D01*
X081437D01*
X081337Y011345D01*
Y011545D01*
X081437Y011645D01*
X081737D01*
X053905Y010645D02*
X053705Y010545D01*
X053505Y010345D01*
Y010145D01*
X053605Y010045D01*
X053805D01*
X053905Y010145D01*
Y010245D01*
X053805Y010345D01*
X053505D01*
X054505Y010045D02*
X054105D01*
X054505Y010445D01*
Y010545D01*
X054405Y010645D01*
X054205D01*
X054105Y010545D01*
X055585Y010645D02*
X055985D01*
X055785D01*
Y010045D01*
X056285D02*
X056485D01*
X056585Y010145D01*
Y010345D01*
X056485Y010445D01*
X056285D01*
X056185Y010345D01*
Y010145D01*
X056285Y010045D01*
X056885Y010545D02*
Y010445D01*
X056785D01*
X056985D01*
X056885D01*
Y010145D01*
X056985Y010045D01*
X057384Y010445D02*
X057584D01*
X057684Y010345D01*
Y010045D01*
X057384D01*
X057284Y010145D01*
X057384Y010245D01*
X057684D01*
X057884Y010045D02*
X058084D01*
X057984D01*
Y010645D01*
X057884D01*
D22*
X013659Y014422D02*
Y014582D01*
X013819D01*
Y014422D01*
X013659D01*
X014407Y012966D02*
Y013126D01*
X014567D01*
Y012966D01*
X014407D01*
X013659Y012147D02*
Y012307D01*
X013819D01*
Y012147D01*
X013659D01*
X014407Y010800D02*
Y010960D01*
X014567D01*
Y010800D01*
X014407D01*
X013619Y009855D02*
Y010015D01*
X013779D01*
Y009855D01*
X013619D01*
X017202Y014422D02*
Y014582D01*
X017362D01*
Y014422D01*
X017202D01*
X017950Y012966D02*
Y013126D01*
X018110D01*
Y012966D01*
X017950D01*
X017202Y012147D02*
Y012307D01*
X017362D01*
Y012147D01*
X017202D01*
X017950Y010800D02*
Y010960D01*
X018110D01*
Y010800D01*
X017950D01*
X017163Y009855D02*
Y010015D01*
X017323D01*
Y009855D01*
X017163D01*
X023073Y013410D02*
X022993Y013570D01*
X023153D01*
X023073Y013410D01*
X031244Y012288D02*
X031164Y012448D01*
X031324D01*
X031244Y012288D01*
X033425D02*
X033345Y012448D01*
X033505D01*
X033425Y012288D01*
X032335D02*
X032255Y012448D01*
X032415D01*
X032335Y012288D01*
X034516D02*
X034436Y012448D01*
X034596D01*
X034516Y012288D01*
X035606D02*
X035526Y012448D01*
X035686D01*
X035606Y012288D01*
X030154D02*
X030074Y012448D01*
X030234D01*
X030154Y012288D01*
X023610D02*
X023530Y012448D01*
X023690D01*
X023610Y012288D01*
X029063D02*
X028983Y012448D01*
X029143D01*
X029063Y012288D01*
X027972D02*
X027892Y012448D01*
X028052D01*
X027972Y012288D01*
X025791D02*
X025711Y012448D01*
X025871D01*
X025791Y012288D01*
X026882D02*
X026802Y012448D01*
X026962D01*
X026882Y012288D01*
X024701D02*
X024621Y012448D01*
X024781D01*
X024701Y012288D01*
X025246Y013406D02*
X025166Y013566D01*
X025326D01*
X025246Y013406D01*
X027427D02*
X027347Y013566D01*
X027507D01*
X027427Y013406D01*
X026337D02*
X026257Y013566D01*
X026417D01*
X026337Y013406D01*
X028518D02*
X028438Y013566D01*
X028598D01*
X028518Y013406D01*
X029608D02*
X029528Y013566D01*
X029688D01*
X029608Y013406D01*
X024155D02*
X024076Y013566D01*
X024235D01*
X024155Y013406D01*
X030699D02*
X030619Y013566D01*
X030779D01*
X030699Y013406D01*
X038868Y012847D02*
X038908Y012887D01*
X038948D01*
X038908Y012927D01*
X038948Y012967D01*
X038908D01*
X038868Y013007D01*
X038828Y012967D01*
X038788D01*
X038828Y012927D01*
X038788Y012887D01*
X038828D01*
X038868Y012847D01*
X020348D02*
X020388Y012887D01*
X020428D01*
X020388Y012927D01*
X020428Y012967D01*
X020388D01*
X020348Y013007D01*
X020308Y012967D01*
X020268D01*
X020308Y012927D01*
X020268Y012887D01*
X020308D01*
X020348Y012847D01*
X036152Y013406D02*
X036072Y013566D01*
X036232D01*
X036152Y013406D01*
X035061D02*
X034981Y013566D01*
X035141D01*
X035061Y013406D01*
X032880D02*
X032800Y013566D01*
X032960D01*
X032880Y013406D01*
X033970D02*
X033890Y013566D01*
X034050D01*
X033970Y013406D01*
X031789D02*
X031709Y013566D01*
X031869D01*
X031789Y013406D01*
X021763Y010490D02*
X021803Y010570D01*
X021763Y010650D01*
X021843Y010610D01*
X021923Y010650D01*
X021883Y010570D01*
X021923Y010490D01*
X021843Y010530D01*
X021763Y010490D01*
X025963Y010590D02*
X026003Y010670D01*
X025963Y010750D01*
X026043Y010710D01*
X026123Y010750D01*
X026083Y010670D01*
X026123Y010590D01*
X026043Y010630D01*
X025963Y010590D01*
X029663Y010690D02*
X029703Y010770D01*
X029663Y010850D01*
X029743Y010810D01*
X029823Y010850D01*
X029783Y010770D01*
X029823Y010690D01*
X029743Y010730D01*
X029663Y010690D01*
X033463D02*
X033503Y010770D01*
X033463Y010850D01*
X033543Y010810D01*
X033623Y010850D01*
X033583Y010770D01*
X033623Y010690D01*
X033543Y010730D01*
X033463Y010690D01*
X031463Y028240D02*
X031503Y028320D01*
X031463Y028400D01*
X031543Y028360D01*
X031623Y028400D01*
X031583Y028320D01*
X031623Y028240D01*
X031543Y028280D01*
X031463Y028240D01*
X031263Y022190D02*
X031303Y022270D01*
X031263Y022350D01*
X031343Y022310D01*
X031423Y022350D01*
X031383Y022270D01*
X031423Y022190D01*
X031343Y022230D01*
X031263Y022190D01*
X017363Y034240D02*
X017403Y034320D01*
X017363Y034400D01*
X017443Y034360D01*
X017523Y034400D01*
X017483Y034320D01*
X017523Y034240D01*
X017443Y034280D01*
X017363Y034240D01*
X030413Y035140D02*
X030453Y035220D01*
X030413Y035300D01*
X030493Y035260D01*
X030573Y035300D01*
X030533Y035220D01*
X030573Y035140D01*
X030493Y035180D01*
X030413Y035140D01*
X019613Y026790D02*
X019653Y026870D01*
X019613Y026950D01*
X019693Y026910D01*
X019773Y026950D01*
X019733Y026870D01*
X019773Y026790D01*
X019693Y026830D01*
X019613Y026790D01*
X020563Y016140D02*
X020603Y016220D01*
X020563Y016300D01*
X020643Y016260D01*
X020723Y016300D01*
X020683Y016220D01*
X020723Y016140D01*
X020643Y016180D01*
X020563Y016140D01*
X028313Y034640D02*
X028353Y034720D01*
X028313Y034800D01*
X028393Y034760D01*
X028473Y034800D01*
X028433Y034720D01*
X028473Y034640D01*
X028393Y034680D01*
X028313Y034640D01*
X027513D02*
X027553Y034720D01*
X027513Y034800D01*
X027593Y034760D01*
X027673Y034800D01*
X027633Y034720D01*
X027673Y034640D01*
X027593Y034680D01*
X027513Y034640D01*
X026713D02*
X026753Y034720D01*
X026713Y034800D01*
X026793Y034760D01*
X026873Y034800D01*
X026833Y034720D01*
X026873Y034640D01*
X026793Y034680D01*
X026713Y034640D01*
X029813Y030740D02*
X029853Y030820D01*
X029813Y030900D01*
X029893Y030860D01*
X029973Y030900D01*
X029933Y030820D01*
X029973Y030740D01*
X029893Y030780D01*
X029813Y030740D01*
X029063D02*
X029103Y030820D01*
X029063Y030900D01*
X029143Y030860D01*
X029223Y030900D01*
X029183Y030820D01*
X029223Y030740D01*
X029143Y030780D01*
X029063Y030740D01*
X028263D02*
X028303Y030820D01*
X028263Y030900D01*
X028343Y030860D01*
X028423Y030900D01*
X028383Y030820D01*
X028423Y030740D01*
X028343Y030780D01*
X028263Y030740D01*
X027513D02*
X027553Y030820D01*
X027513Y030900D01*
X027593Y030860D01*
X027673Y030900D01*
X027633Y030820D01*
X027673Y030740D01*
X027593Y030780D01*
X027513Y030740D01*
X026713D02*
X026753Y030820D01*
X026713Y030900D01*
X026793Y030860D01*
X026873Y030900D01*
X026833Y030820D01*
X026873Y030740D01*
X026793Y030780D01*
X026713Y030740D01*
X025913D02*
X025953Y030820D01*
X025913Y030900D01*
X025993Y030860D01*
X026073Y030900D01*
X026033Y030820D01*
X026073Y030740D01*
X025993Y030780D01*
X025913Y030740D01*
Y034640D02*
X025953Y034720D01*
X025913Y034800D01*
X025993Y034760D01*
X026073Y034800D01*
X026033Y034720D01*
X026073Y034640D01*
X025993Y034680D01*
X025913Y034640D01*
X025163Y030740D02*
X025203Y030820D01*
X025163Y030900D01*
X025243Y030860D01*
X025323Y030900D01*
X025283Y030820D01*
X025323Y030740D01*
X025243Y030780D01*
X025163Y030740D01*
X037606Y014240D02*
X037646Y014320D01*
X037606Y014400D01*
X037686Y014360D01*
X037766Y014400D01*
X037726Y014320D01*
X037766Y014240D01*
X037686Y014280D01*
X037606Y014240D01*
X037670Y010300D02*
X037710Y010380D01*
X037670Y010460D01*
X037750Y010420D01*
X037830Y010460D01*
X037790Y010380D01*
X037830Y010300D01*
X037750Y010340D01*
X037670Y010300D01*
X015470Y014000D02*
X015510Y014080D01*
X015470Y014160D01*
X015550Y014120D01*
X015630Y014160D01*
X015590Y014080D01*
X015630Y014000D01*
X015550Y014040D01*
X015470Y014000D01*
X048467Y016105D02*
X048587Y016345D01*
X048467Y016585D01*
X048707Y016465D01*
X048947Y016585D01*
X048827Y016345D01*
X048947Y016105D01*
X048707Y016225D01*
X048467Y016105D01*
X048707Y014905D02*
X048467Y015385D01*
X048947D01*
X048707Y014905D01*
X048467Y012505D02*
Y012985D01*
X048947D01*
Y012505D01*
X048467D01*
X048707Y011305D02*
X048827Y011425D01*
X048947D01*
X048827Y011545D01*
X048947Y011665D01*
X048827D01*
X048707Y011785D01*
X048587Y011665D01*
X048467D01*
X048587Y011545D01*
X048467Y011425D01*
X048587D01*
X048707Y011305D01*
D23*
X019885Y032423D02*
G03*
X019885Y032423I-000080J000000D01*
G01*
D24*
X048946Y018085D02*
X048826Y018205D01*
X048586D01*
X048467Y018085D01*
Y017965D01*
X048586Y017845D01*
X048826D01*
X048946Y017725D01*
Y017605D01*
X048826Y017485D01*
X048586D01*
X048467Y017605D01*
X049186Y017965D02*
Y017605D01*
X049306Y017485D01*
X049666D01*
Y017365D01*
X049546Y017245D01*
X049426D01*
X049666Y017485D02*
Y017965D01*
X049906Y017485D02*
Y017965D01*
X050026D01*
X050146Y017845D01*
Y017485D01*
Y017845D01*
X050266Y017965D01*
X050386Y017845D01*
Y017485D01*
X050626Y018205D02*
Y017485D01*
X050986D01*
X051106Y017605D01*
Y017725D01*
Y017845D01*
X050986Y017965D01*
X050626D01*
X051466Y017485D02*
X051705D01*
X051825Y017605D01*
Y017845D01*
X051705Y017965D01*
X051466D01*
X051346Y017845D01*
Y017605D01*
X051466Y017485D01*
X052065D02*
X052305D01*
X052185D01*
Y018205D01*
X052065D01*
X053505D02*
Y017485D01*
Y017845D01*
X053985D01*
Y018205D01*
Y017485D01*
X054225D02*
X054465D01*
X054345D01*
Y017965D01*
X054225D01*
X054945Y018085D02*
Y017965D01*
X054825D01*
X055065D01*
X054945D01*
Y017605D01*
X055065Y017485D01*
X056624Y018085D02*
X056504Y018205D01*
X056264D01*
X056144Y018085D01*
Y017605D01*
X056264Y017485D01*
X056504D01*
X056624Y017605D01*
X056984Y017485D02*
X057224D01*
X057344Y017605D01*
Y017845D01*
X057224Y017965D01*
X056984D01*
X056864Y017845D01*
Y017605D01*
X056984Y017485D01*
X057584Y017965D02*
Y017605D01*
X057704Y017485D01*
X058064D01*
Y017965D01*
X058304Y017485D02*
Y017965D01*
X058664D01*
X058784Y017845D01*
Y017485D01*
X059143Y018085D02*
Y017965D01*
X059023D01*
X059263D01*
X059143D01*
Y017605D01*
X059263Y017485D01*
X060943Y018205D02*
X060463D01*
Y017845D01*
X060703D01*
X060463D01*
Y017485D01*
X061183D02*
X061423D01*
X061303D01*
Y017965D01*
X061183D01*
X061783Y017485D02*
Y017965D01*
X062143D01*
X062263Y017845D01*
Y017485D01*
X062503D02*
X062743D01*
X062623D01*
Y017965D01*
X062503D01*
X063103Y017485D02*
X063462D01*
X063582Y017605D01*
X063462Y017725D01*
X063223D01*
X063103Y017845D01*
X063223Y017965D01*
X063582D01*
X063822Y018205D02*
Y017485D01*
Y017845D01*
X063942Y017965D01*
X064182D01*
X064302Y017845D01*
Y017485D01*
X064902D02*
X064662D01*
X064542Y017605D01*
Y017845D01*
X064662Y017965D01*
X064902D01*
X065022Y017845D01*
Y017725D01*
X064542D01*
X065742Y018205D02*
Y017485D01*
X065382D01*
X065262Y017605D01*
Y017845D01*
X065382Y017965D01*
X065742D01*
X066701Y018205D02*
Y017485D01*
Y017845D01*
X067181D01*
Y018205D01*
Y017485D01*
X067541D02*
X067781D01*
X067901Y017605D01*
Y017845D01*
X067781Y017965D01*
X067541D01*
X067421Y017845D01*
Y017605D01*
X067541Y017485D01*
X068141D02*
X068381D01*
X068261D01*
Y018205D01*
X068141D01*
X069101Y017485D02*
X068861D01*
X068741Y017605D01*
Y017845D01*
X068861Y017965D01*
X069101D01*
X069221Y017845D01*
Y017725D01*
X068741D01*
X070660Y018085D02*
X070540Y018205D01*
X070300D01*
X070180Y018085D01*
Y017965D01*
X070300Y017845D01*
X070540D01*
X070660Y017725D01*
Y017605D01*
X070540Y017485D01*
X070300D01*
X070180Y017605D01*
X070900Y017485D02*
X071140D01*
X071020D01*
Y017965D01*
X070900D01*
X071500D02*
X071980D01*
X071500Y017485D01*
X071980D01*
X072579D02*
X072340D01*
X072220Y017605D01*
Y017845D01*
X072340Y017965D01*
X072579D01*
X072699Y017845D01*
Y017725D01*
X072220D01*
X073899Y017485D02*
Y018205D01*
X074259D01*
X074379Y018085D01*
Y017845D01*
X074259Y017725D01*
X073899D01*
X074619Y017485D02*
X074859D01*
X074739D01*
Y018205D01*
X074619D01*
X075339Y017965D02*
X075579D01*
X075699Y017845D01*
Y017485D01*
X075339D01*
X075219Y017605D01*
X075339Y017725D01*
X075699D01*
X076059Y018085D02*
Y017965D01*
X075939D01*
X076179D01*
X076059D01*
Y017605D01*
X076179Y017485D01*
X076898D02*
X076659D01*
X076539Y017605D01*
Y017845D01*
X076659Y017965D01*
X076898D01*
X077018Y017845D01*
Y017725D01*
X076539D01*
X077738Y018205D02*
Y017485D01*
X077378D01*
X077258Y017605D01*
Y017845D01*
X077378Y017965D01*
X077738D01*
X078938Y018205D02*
Y017485D01*
Y017845D01*
X079418D01*
Y018205D01*
Y017485D01*
X079778D02*
X080018D01*
X080138Y017605D01*
Y017845D01*
X080018Y017965D01*
X079778D01*
X079658Y017845D01*
Y017605D01*
X079778Y017485D01*
X080378D02*
X080618D01*
X080498D01*
Y018205D01*
X080378D01*
X081337Y017485D02*
X081098D01*
X080978Y017605D01*
Y017845D01*
X081098Y017965D01*
X081337D01*
X081457Y017845D01*
Y017725D01*
X080978D01*
X082417Y018205D02*
X082897D01*
X082657D01*
Y017485D01*
X083137Y017965D02*
Y017605D01*
X083257Y017485D01*
X083617D01*
Y017365D01*
X083497Y017245D01*
X083377D01*
X083617Y017485D02*
Y017965D01*
X083857Y017245D02*
Y017965D01*
X084216D01*
X084336Y017845D01*
Y017605D01*
X084216Y017485D01*
X083857D01*
X084936D02*
X084696D01*
X084576Y017605D01*
Y017845D01*
X084696Y017965D01*
X084936D01*
X085056Y017845D01*
Y017725D01*
X084576D01*
X047587Y018565D02*
X086256D01*
X047587Y016945D02*
X086256D01*
X047587Y018565D02*
Y009745D01*
X086256Y018565D02*
Y009745D01*
X053065Y018565D02*
Y009745D01*
X060023Y018565D02*
Y009745D01*
X073459Y018565D02*
Y009745D01*
X078498Y018565D02*
Y009745D01*
X047587Y010945D02*
X086256D01*
X047587Y009745D02*
X086256D01*
D25*
X048947Y013945D02*
G03*
X048947Y013945I-000240J000000D01*
G01*
M02*
