G04 Layer_Color=16711935*
%FSAX24Y24*%
%MOIN*%
G70*
G01*
G75*
%ADD17C,0.0710*%
%ADD18C,0.0680*%
%ADD19C,0.0080*%
%ADD20C,0.1009*%
%ADD21R,0.0434X0.1005*%
D17*
X031789Y013486D02*
D03*
X033970D02*
D03*
X032880D02*
D03*
X035061D02*
D03*
X036152D02*
D03*
X030699D02*
D03*
X024155D02*
D03*
X029608D02*
D03*
X028518D02*
D03*
X026337D02*
D03*
X027427D02*
D03*
X025246D02*
D03*
X024701Y012368D02*
D03*
X026882D02*
D03*
X025791D02*
D03*
X027972D02*
D03*
X029063D02*
D03*
X023610D02*
D03*
X030154D02*
D03*
X035606D02*
D03*
X034516D02*
D03*
X032335D02*
D03*
X033425D02*
D03*
X031244D02*
D03*
X023073Y013490D02*
D03*
D18*
X020348Y012927D02*
D03*
X038868D02*
D03*
D19*
X019805Y032423D02*
D03*
D20*
X017243Y009935D02*
D03*
X018030Y010880D02*
D03*
X017282Y012227D02*
D03*
X018030Y013046D02*
D03*
X017282Y014502D02*
D03*
X013699Y009935D02*
D03*
X014487Y010880D02*
D03*
X013739Y012227D02*
D03*
X014487Y013046D02*
D03*
X013739Y014502D02*
D03*
D21*
X030730Y033762D02*
D03*
Y031872D02*
D03*
X029942D02*
D03*
Y033762D02*
D03*
X028368D02*
D03*
Y031872D02*
D03*
X029155D02*
D03*
Y033762D02*
D03*
X026005D02*
D03*
Y031872D02*
D03*
X025218D02*
D03*
Y033762D02*
D03*
X026793D02*
D03*
Y031872D02*
D03*
X027580D02*
D03*
Y033762D02*
D03*
X022856D02*
D03*
Y031872D02*
D03*
X022068D02*
D03*
Y033762D02*
D03*
X020494D02*
D03*
Y031872D02*
D03*
X021281D02*
D03*
Y033762D02*
D03*
X024431D02*
D03*
Y031872D02*
D03*
X023643D02*
D03*
Y033762D02*
D03*
M02*
